<?xml version="1.0" standalone="no"?>
<svg xmlns="http://www.w3.org/2000/svg" xmlns:xlink="http://www.w3.org/1999/xlink" width="3419pt" height="979pt" viewBox="0.00 0.00 3419.1 979.2">
<g id="graph0" class="graph" transform="translate(312.60987041262104,884.3630822978923) scale(0.7578582832552027)" data-name="Tree">

<polygon fill="white" stroke="none" points="-4,4 -4,-975.2 3415.1,-975.2 3415.1,4 -4,4"/>
<!-- 0 -->
<g id="node1" class="node" pointer-events="visible" data-name="0">

<path fill="#e78d4c" stroke="black" d="M1780.25,-971.2C1780.25,-971.2 1541.24,-971.2 1541.24,-971.2 1535.24,-971.2 1529.24,-965.2 1529.24,-959.2 1529.24,-959.2 1529.24,-891.2 1529.24,-891.2 1529.24,-885.2 1535.24,-879.2 1541.24,-879.2 1541.24,-879.2 1780.25,-879.2 1780.25,-879.2 1786.25,-879.2 1792.25,-885.2 1792.25,-891.2 1792.25,-891.2 1792.25,-959.2 1792.25,-959.2 1792.25,-965.2 1786.25,-971.2 1780.25,-971.2"/>
<text text-anchor="middle" x="1660.74" y="-954.6" font-family="Helvetica,sans-Serif" font-size="14.00">ratio_to_median_purchase_price &lt;= 4.0</text>
<text text-anchor="middle" x="1660.74" y="-937.8" font-family="Helvetica,sans-Serif" font-size="14.00">gini = 0.16</text>
<text text-anchor="middle" x="1660.74" y="-921" font-family="Helvetica,sans-Serif" font-size="14.00">samples = 1000000</text>
<text text-anchor="middle" x="1660.74" y="-904.2" font-family="Helvetica,sans-Serif" font-size="14.00">value = [912597, 87403]</text>
<text text-anchor="middle" x="1660.74" y="-887.4" font-family="Helvetica,sans-Serif" font-size="14.00" style="">class = fraud</text>
</g>
<!-- 1 -->
<g id="node2" class="node" pointer-events="visible" data-name="1">

<path fill="#e6843e" stroke="black" d="M1155.72,-843.2C1155.72,-843.2 957.77,-843.2 957.77,-843.2 951.77,-843.2 945.77,-837.2 945.77,-831.2 945.77,-831.2 945.77,-763.2 945.77,-763.2 945.77,-757.2 951.77,-751.2 957.77,-751.2 957.77,-751.2 1155.72,-751.2 1155.72,-751.2 1161.72,-751.2 1167.72,-757.2 1167.72,-763.2 1167.72,-763.2 1167.72,-831.2 1167.72,-831.2 1167.72,-837.2 1161.72,-843.2 1155.72,-843.2"/>
<text text-anchor="middle" x="1056.74" y="-826.6" font-family="Helvetica,sans-Serif" font-size="14.00">distance_from_home &lt;= 100.004</text>
<text text-anchor="middle" x="1056.74" y="-809.8" font-family="Helvetica,sans-Serif" font-size="14.00">gini = 0.049</text>
<text text-anchor="middle" x="1056.74" y="-793" font-family="Helvetica,sans-Serif" font-size="14.00">samples = 896842</text>
<text text-anchor="middle" x="1056.74" y="-776.2" font-family="Helvetica,sans-Serif" font-size="14.00">value = [874390, 22452]</text>
<text text-anchor="middle" x="1056.74" y="-759.4" font-family="Helvetica,sans-Serif" font-size="14.00" style="">class = fraud</text>
</g>
<!-- 0&#45;&gt;1 -->
<g id="edge1" class="edge" data-name="0-&gt;1">

<path fill="none" stroke="black" d="M1528.94,-896.7C1424.89,-875 1280.82,-844.94 1179.25,-823.76"/>
<polygon fill="black" stroke="black" points="1180,-820.34 1169.5,-821.72 1178.57,-827.19 1180,-820.34"/>
<text text-anchor="middle" x="1181.71" y="-838.13" font-family="Helvetica,sans-Serif" font-size="14.00">True</text>
</g>
<!-- 34 -->
<g id="node35" class="node" pointer-events="visible" data-name="34">

<path fill="#add7f4" stroke="black" d="M2306.09,-843.2C2306.09,-843.2 2171.4,-843.2 2171.4,-843.2 2165.4,-843.2 2159.4,-837.2 2159.4,-831.2 2159.4,-831.2 2159.4,-763.2 2159.4,-763.2 2159.4,-757.2 2165.4,-751.2 2171.4,-751.2 2171.4,-751.2 2306.09,-751.2 2306.09,-751.2 2312.09,-751.2 2318.09,-757.2 2318.09,-763.2 2318.09,-763.2 2318.09,-831.2 2318.09,-831.2 2318.09,-837.2 2312.09,-843.2 2306.09,-843.2"/>
<text text-anchor="middle" x="2238.74" y="-826.6" font-family="Helvetica,sans-Serif" font-size="14.00">online_order &lt;= 0.5</text>
<text text-anchor="middle" x="2238.74" y="-809.8" font-family="Helvetica,sans-Serif" font-size="14.00">gini = 0.466</text>
<text text-anchor="middle" x="2238.74" y="-793" font-family="Helvetica,sans-Serif" font-size="14.00">samples = 103158</text>
<text text-anchor="middle" x="2238.74" y="-776.2" font-family="Helvetica,sans-Serif" font-size="14.00">value = [38207, 64951]</text>
<text text-anchor="middle" x="2238.74" y="-759.4" font-family="Helvetica,sans-Serif" font-size="14.00" style="">class = not fraud</text>
</g>
<!-- 0&#45;&gt;34 -->
<g id="edge34" class="edge" data-name="0-&gt;34">

<path fill="none" stroke="black" d="M1792.62,-895.45C1901.27,-871.77 2052.49,-838.8 2147.97,-817.99"/>
<polygon fill="black" stroke="black" points="2148.54,-821.44 2157.57,-815.9 2147.05,-814.61 2148.54,-821.44"/>
<text text-anchor="middle" x="2145.54" y="-832.41" font-family="Helvetica,sans-Serif" font-size="14.00">False</text>
</g>
<!-- 2 -->
<g id="node3" class="node" pointer-events="visible" data-name="2">

<path fill="#e5823a" stroke="black" d="M714.97,-715.2C714.97,-715.2 462.52,-715.2 462.52,-715.2 456.52,-715.2 450.52,-709.2 450.52,-703.2 450.52,-703.2 450.52,-635.2 450.52,-635.2 450.52,-629.2 456.52,-623.2 462.52,-623.2 462.52,-623.2 714.97,-623.2 714.97,-623.2 720.97,-623.2 726.97,-629.2 726.97,-635.2 726.97,-635.2 726.97,-703.2 726.97,-703.2 726.97,-709.2 720.97,-715.2 714.97,-715.2"/>
<text text-anchor="middle" x="588.74" y="-698.6" font-family="Helvetica,sans-Serif" font-size="14.00">distance_from_last_transaction &lt;= 50.028</text>
<text text-anchor="middle" x="588.74" y="-681.8" font-family="Helvetica,sans-Serif" font-size="14.00">gini = 0.012</text>
<text text-anchor="middle" x="588.74" y="-665" font-family="Helvetica,sans-Serif" font-size="14.00">samples = 852163</text>
<text text-anchor="middle" x="588.74" y="-648.2" font-family="Helvetica,sans-Serif" font-size="14.00">value = [847102, 5061]</text>
<text text-anchor="middle" x="588.74" y="-631.4" font-family="Helvetica,sans-Serif" font-size="14.00" style="">class = fraud</text>
</g>
<!-- 1&#45;&gt;2 -->
<g id="edge2" class="edge" data-name="1-&gt;2">

<path fill="none" stroke="black" d="M945.54,-766.26C883.44,-749.54 805.24,-728.49 737.89,-710.36"/>
<polygon fill="black" stroke="black" points="739.21,-707.09 728.64,-707.87 737.39,-713.84 739.21,-707.09"/>
</g>
<!-- 19 -->
<g id="node20" class="node" pointer-events="visible" data-name="19">

<path fill="#f6d1b7" stroke="black" d="M1124.09,-715.2C1124.09,-715.2 989.4,-715.2 989.4,-715.2 983.4,-715.2 977.4,-709.2 977.4,-703.2 977.4,-703.2 977.4,-635.2 977.4,-635.2 977.4,-629.2 983.4,-623.2 989.4,-623.2 989.4,-623.2 1124.09,-623.2 1124.09,-623.2 1130.09,-623.2 1136.09,-629.2 1136.09,-635.2 1136.09,-635.2 1136.09,-703.2 1136.09,-703.2 1136.09,-709.2 1130.09,-715.2 1124.09,-715.2"/>
<text text-anchor="middle" x="1056.74" y="-698.6" font-family="Helvetica,sans-Serif" font-size="14.00">online_order &lt;= 0.5</text>
<text text-anchor="middle" x="1056.74" y="-681.8" font-family="Helvetica,sans-Serif" font-size="14.00">gini = 0.475</text>
<text text-anchor="middle" x="1056.74" y="-665" font-family="Helvetica,sans-Serif" font-size="14.00">samples = 44679</text>
<text text-anchor="middle" x="1056.74" y="-648.2" font-family="Helvetica,sans-Serif" font-size="14.00">value = [27288, 17391]</text>
<text text-anchor="middle" x="1056.74" y="-631.4" font-family="Helvetica,sans-Serif" font-size="14.00" style="">class = fraud</text>
</g>
<!-- 1&#45;&gt;19 -->
<g id="edge19" class="edge" data-name="1-&gt;19">

<path fill="none" stroke="black" d="M1056.74,-750.71C1056.74,-743.04 1056.74,-734.99 1056.74,-727.07"/>
<polygon fill="black" stroke="black" points="1060.24,-727.14 1056.74,-717.14 1053.24,-727.14 1060.24,-727.14"/>
</g>
<!-- 3 -->
<g id="node4" class="node" pointer-events="visible" data-name="3">

<path fill="#e58139" stroke="black" d="M417.97,-587.2C417.97,-587.2 165.52,-587.2 165.52,-587.2 159.52,-587.2 153.52,-581.2 153.52,-575.2 153.52,-575.2 153.52,-507.2 153.52,-507.2 153.52,-501.2 159.52,-495.2 165.52,-495.2 165.52,-495.2 417.97,-495.2 417.97,-495.2 423.97,-495.2 429.97,-501.2 429.97,-507.2 429.97,-507.2 429.97,-575.2 429.97,-575.2 429.97,-581.2 423.97,-587.2 417.97,-587.2"/>
<text text-anchor="middle" x="291.74" y="-570.6" font-family="Helvetica,sans-Serif" font-size="14.00">distance_from_last_transaction &lt;= 50.001</text>
<text text-anchor="middle" x="291.74" y="-553.8" font-family="Helvetica,sans-Serif" font-size="14.00">gini = 0.0</text>
<text text-anchor="middle" x="291.74" y="-537" font-family="Helvetica,sans-Serif" font-size="14.00">samples = 839540</text>
<text text-anchor="middle" x="291.74" y="-520.2" font-family="Helvetica,sans-Serif" font-size="14.00">value = [839539, 1]</text>
<text text-anchor="middle" x="291.74" y="-503.4" font-family="Helvetica,sans-Serif" font-size="14.00" style="">class = fraud</text>
</g>
<!-- 2&#45;&gt;3 -->
<g id="edge3" class="edge" data-name="2-&gt;3">

<path fill="none" stroke="black" d="M481.52,-622.71C458.07,-612.76 433.13,-602.18 409.31,-592.08"/>
<polygon fill="black" stroke="black" points="410.78,-588.9 400.2,-588.21 408.04,-595.34 410.78,-588.9"/>
</g>
<!-- 8 -->
<g id="node9" class="node" pointer-events="visible" data-name="8">

<path fill="#f6d5bd" stroke="black" d="M648.51,-587.2C648.51,-587.2 528.97,-587.2 528.97,-587.2 522.97,-587.2 516.97,-581.2 516.97,-575.2 516.97,-575.2 516.97,-507.2 516.97,-507.2 516.97,-501.2 522.97,-495.2 528.97,-495.2 528.97,-495.2 648.51,-495.2 648.51,-495.2 654.51,-495.2 660.51,-501.2 660.51,-507.2 660.51,-507.2 660.51,-575.2 660.51,-575.2 660.51,-581.2 654.51,-587.2 648.51,-587.2"/>
<text text-anchor="middle" x="588.74" y="-570.6" font-family="Helvetica,sans-Serif" font-size="14.00">online_order &lt;= 0.5</text>
<text text-anchor="middle" x="588.74" y="-553.8" font-family="Helvetica,sans-Serif" font-size="14.00">gini = 0.48</text>
<text text-anchor="middle" x="588.74" y="-537" font-family="Helvetica,sans-Serif" font-size="14.00">samples = 12623</text>
<text text-anchor="middle" x="588.74" y="-520.2" font-family="Helvetica,sans-Serif" font-size="14.00">value = [7563, 5060]</text>
<text text-anchor="middle" x="588.74" y="-503.4" font-family="Helvetica,sans-Serif" font-size="14.00" style="">class = fraud</text>
</g>
<!-- 2&#45;&gt;8 -->
<g id="edge8" class="edge" data-name="2-&gt;8">

<path fill="none" stroke="black" d="M588.74,-622.71C588.74,-615.04 588.74,-606.99 588.74,-599.07"/>
<polygon fill="black" stroke="black" points="592.24,-599.14 588.74,-589.14 585.24,-599.14 592.24,-599.14"/>
</g>
<!-- 4 -->
<g id="node5" class="node" pointer-events="visible" data-name="4">

<path fill="#e58139" stroke="black" d="M123.73,-450.9C123.73,-450.9 11.76,-450.9 11.76,-450.9 5.76,-450.9 -0.24,-444.9 -0.24,-438.9 -0.24,-438.9 -0.24,-387.5 -0.24,-387.5 -0.24,-381.5 5.76,-375.5 11.76,-375.5 11.76,-375.5 123.73,-375.5 123.73,-375.5 129.73,-375.5 135.73,-381.5 135.73,-387.5 135.73,-387.5 135.73,-438.9 135.73,-438.9 135.73,-444.9 129.73,-450.9 123.73,-450.9"/>
<text text-anchor="middle" x="67.74" y="-434.2" font-family="Helvetica,sans-Serif" font-size="14.00">gini = 0.0</text>
<text text-anchor="middle" x="67.74" y="-417.4" font-family="Helvetica,sans-Serif" font-size="14.00">samples = 839531</text>
<text text-anchor="middle" x="67.74" y="-400.6" font-family="Helvetica,sans-Serif" font-size="14.00">value = [839531, 0]</text>
<text text-anchor="middle" x="67.74" y="-383.8" font-family="Helvetica,sans-Serif" font-size="14.00" style="">class = fraud</text>
</g>
<!-- 3&#45;&gt;4 -->
<g id="edge4" class="edge" data-name="3-&gt;4">

<path fill="none" stroke="black" d="M208.36,-494.73C187.52,-483.24 165.27,-470.85 144.74,-459.2 143.31,-458.39 141.87,-457.57 140.41,-456.74"/>
<polygon fill="black" stroke="black" points="142.43,-453.86 132.01,-451.92 138.95,-459.93 142.43,-453.86"/>
</g>
<!-- 5 -->
<g id="node6" class="node" pointer-events="visible" data-name="5">

<path fill="#e89152" stroke="black" d="M417.97,-459.2C417.97,-459.2 165.52,-459.2 165.52,-459.2 159.52,-459.2 153.52,-453.2 153.52,-447.2 153.52,-447.2 153.52,-379.2 153.52,-379.2 153.52,-373.2 159.52,-367.2 165.52,-367.2 165.52,-367.2 417.97,-367.2 417.97,-367.2 423.97,-367.2 429.97,-373.2 429.97,-379.2 429.97,-379.2 429.97,-447.2 429.97,-447.2 429.97,-453.2 423.97,-459.2 417.97,-459.2"/>
<text text-anchor="middle" x="291.74" y="-442.6" font-family="Helvetica,sans-Serif" font-size="14.00">distance_from_last_transaction &lt;= 50.004</text>
<text text-anchor="middle" x="291.74" y="-425.8" font-family="Helvetica,sans-Serif" font-size="14.00">gini = 0.198</text>
<text text-anchor="middle" x="291.74" y="-409" font-family="Helvetica,sans-Serif" font-size="14.00">samples = 9</text>
<text text-anchor="middle" x="291.74" y="-392.2" font-family="Helvetica,sans-Serif" font-size="14.00">value = [8, 1]</text>
<text text-anchor="middle" x="291.74" y="-375.4" font-family="Helvetica,sans-Serif" font-size="14.00" style="">class = fraud</text>
</g>
<!-- 3&#45;&gt;5 -->
<g id="edge5" class="edge" data-name="3-&gt;5">

<path fill="none" stroke="black" d="M291.74,-494.71C291.74,-487.04 291.74,-478.99 291.74,-471.07"/>
<polygon fill="black" stroke="black" points="295.24,-471.14 291.74,-461.14 288.24,-471.14 295.24,-471.14"/>
</g>
<!-- 6 -->
<g id="node7" class="node" pointer-events="visible" data-name="6">

<path fill="#399de5" stroke="black" d="M249.36,-322.9C249.36,-322.9 154.13,-322.9 154.13,-322.9 148.13,-322.9 142.13,-316.9 142.13,-310.9 142.13,-310.9 142.13,-259.5 142.13,-259.5 142.13,-253.5 148.13,-247.5 154.13,-247.5 154.13,-247.5 249.36,-247.5 249.36,-247.5 255.36,-247.5 261.36,-253.5 261.36,-259.5 261.36,-259.5 261.36,-310.9 261.36,-310.9 261.36,-316.9 255.36,-322.9 249.36,-322.9"/>
<text text-anchor="middle" x="201.74" y="-306.2" font-family="Helvetica,sans-Serif" font-size="14.00">gini = 0.0</text>
<text text-anchor="middle" x="201.74" y="-289.4" font-family="Helvetica,sans-Serif" font-size="14.00">samples = 1</text>
<text text-anchor="middle" x="201.74" y="-272.6" font-family="Helvetica,sans-Serif" font-size="14.00">value = [0, 1]</text>
<text text-anchor="middle" x="201.74" y="-255.8" font-family="Helvetica,sans-Serif" font-size="14.00" style="">class = not fraud</text>
</g>
<!-- 5&#45;&gt;6 -->
<g id="edge6" class="edge" data-name="5-&gt;6">

<path fill="none" stroke="black" d="M259.25,-366.71C251.3,-355.59 242.79,-343.67 234.82,-332.51"/>
<polygon fill="black" stroke="black" points="237.81,-330.68 229.15,-324.58 232.12,-334.75 237.81,-330.68"/>
</g>
<!-- 7 -->
<g id="node8" class="node" pointer-events="visible" data-name="7">

<path fill="#e58139" stroke="black" d="M363.8,-322.9C363.8,-322.9 291.69,-322.9 291.69,-322.9 285.69,-322.9 279.69,-316.9 279.69,-310.9 279.69,-310.9 279.69,-259.5 279.69,-259.5 279.69,-253.5 285.69,-247.5 291.69,-247.5 291.69,-247.5 363.8,-247.5 363.8,-247.5 369.8,-247.5 375.8,-253.5 375.8,-259.5 375.8,-259.5 375.8,-310.9 375.8,-310.9 375.8,-316.9 369.8,-322.9 363.8,-322.9"/>
<text text-anchor="middle" x="327.74" y="-306.2" font-family="Helvetica,sans-Serif" font-size="14.00">gini = 0.0</text>
<text text-anchor="middle" x="327.74" y="-289.4" font-family="Helvetica,sans-Serif" font-size="14.00">samples = 8</text>
<text text-anchor="middle" x="327.74" y="-272.6" font-family="Helvetica,sans-Serif" font-size="14.00">value = [8, 0]</text>
<text text-anchor="middle" x="327.74" y="-255.8" font-family="Helvetica,sans-Serif" font-size="14.00" style="">class = fraud</text>
</g>
<!-- 5&#45;&gt;7 -->
<g id="edge7" class="edge" data-name="5-&gt;7">

<path fill="none" stroke="black" d="M304.74,-366.71C307.76,-356.14 310.98,-344.86 314.03,-334.19"/>
<polygon fill="black" stroke="black" points="317.33,-335.38 316.71,-324.8 310.6,-333.45 317.33,-335.38"/>
</g>
<!-- 9 -->
<g id="node10" class="node" pointer-events="visible" data-name="9">

<path fill="#e58139" stroke="black" d="M555.66,-450.9C555.66,-450.9 459.83,-450.9 459.83,-450.9 453.83,-450.9 447.83,-444.9 447.83,-438.9 447.83,-438.9 447.83,-387.5 447.83,-387.5 447.83,-381.5 453.83,-375.5 459.83,-375.5 459.83,-375.5 555.66,-375.5 555.66,-375.5 561.66,-375.5 567.66,-381.5 567.66,-387.5 567.66,-387.5 567.66,-438.9 567.66,-438.9 567.66,-444.9 561.66,-450.9 555.66,-450.9"/>
<text text-anchor="middle" x="507.74" y="-434.2" font-family="Helvetica,sans-Serif" font-size="14.00">gini = 0.0</text>
<text text-anchor="middle" x="507.74" y="-417.4" font-family="Helvetica,sans-Serif" font-size="14.00">samples = 4372</text>
<text text-anchor="middle" x="507.74" y="-400.6" font-family="Helvetica,sans-Serif" font-size="14.00">value = [4372, 0]</text>
<text text-anchor="middle" x="507.74" y="-383.8" font-family="Helvetica,sans-Serif" font-size="14.00" style="">class = fraud</text>
</g>
<!-- 8&#45;&gt;9 -->
<g id="edge9" class="edge" data-name="8-&gt;9">

<path fill="none" stroke="black" d="M559.5,-494.71C552.42,-483.7 544.84,-471.91 537.73,-460.84"/>
<polygon fill="black" stroke="black" points="540.79,-459.14 532.44,-452.62 534.9,-462.92 540.79,-459.14"/>
</g>
<!-- 10 -->
<g id="node11" class="node" pointer-events="visible" data-name="10">

<path fill="#b6dbf5" stroke="black" d="M717.51,-459.2C717.51,-459.2 597.97,-459.2 597.97,-459.2 591.97,-459.2 585.97,-453.2 585.97,-447.2 585.97,-447.2 585.97,-379.2 585.97,-379.2 585.97,-373.2 591.97,-367.2 597.97,-367.2 597.97,-367.2 717.51,-367.2 717.51,-367.2 723.51,-367.2 729.51,-373.2 729.51,-379.2 729.51,-379.2 729.51,-447.2 729.51,-447.2 729.51,-453.2 723.51,-459.2 717.51,-459.2"/>
<text text-anchor="middle" x="657.74" y="-442.6" font-family="Helvetica,sans-Serif" font-size="14.00">used_chip &lt;= 0.5</text>
<text text-anchor="middle" x="657.74" y="-425.8" font-family="Helvetica,sans-Serif" font-size="14.00">gini = 0.474</text>
<text text-anchor="middle" x="657.74" y="-409" font-family="Helvetica,sans-Serif" font-size="14.00">samples = 8251</text>
<text text-anchor="middle" x="657.74" y="-392.2" font-family="Helvetica,sans-Serif" font-size="14.00">value = [3191, 5060]</text>
<text text-anchor="middle" x="657.74" y="-375.4" font-family="Helvetica,sans-Serif" font-size="14.00" style="">class = not fraud</text>
</g>
<!-- 8&#45;&gt;10 -->
<g id="edge10" class="edge" data-name="8-&gt;10">

<path fill="none" stroke="black" d="M613.65,-494.71C618.1,-486.59 622.78,-478.05 627.35,-469.69"/>
<polygon fill="black" stroke="black" points="630.41,-471.4 632.14,-460.95 624.27,-468.04 630.41,-471.4"/>
</g>
<!-- 11 -->
<g id="node12" class="node" pointer-events="visible" data-name="11">

<path fill="#50a9e8" stroke="black" d="M559.73,-331.2C559.73,-331.2 447.76,-331.2 447.76,-331.2 441.76,-331.2 435.76,-325.2 435.76,-319.2 435.76,-319.2 435.76,-251.2 435.76,-251.2 435.76,-245.2 441.76,-239.2 447.76,-239.2 447.76,-239.2 559.73,-239.2 559.73,-239.2 565.73,-239.2 571.73,-245.2 571.73,-251.2 571.73,-251.2 571.73,-319.2 571.73,-319.2 571.73,-325.2 565.73,-331.2 559.73,-331.2"/>
<text text-anchor="middle" x="503.74" y="-314.6" font-family="Helvetica,sans-Serif" font-size="14.00">used_pin &lt;= 0.5</text>
<text text-anchor="middle" x="503.74" y="-297.8" font-family="Helvetica,sans-Serif" font-size="14.00">gini = 0.188</text>
<text text-anchor="middle" x="503.74" y="-281" font-family="Helvetica,sans-Serif" font-size="14.00">samples = 5300</text>
<text text-anchor="middle" x="503.74" y="-264.2" font-family="Helvetica,sans-Serif" font-size="14.00">value = [557, 4743]</text>
<text text-anchor="middle" x="503.74" y="-247.4" font-family="Helvetica,sans-Serif" font-size="14.00" style="">class = not fraud</text>
</g>
<!-- 10&#45;&gt;11 -->
<g id="edge11" class="edge" data-name="10-&gt;11">

<path fill="none" stroke="black" d="M602.15,-366.71C591.02,-357.61 579.25,-347.98 567.87,-338.67"/>
<polygon fill="black" stroke="black" points="570.39,-336.2 560.43,-332.58 565.95,-341.62 570.39,-336.2"/>
</g>
<!-- 14 -->
<g id="node15" class="node" pointer-events="visible" data-name="14">

<path fill="#e89051" stroke="black" d="M727.61,-331.2C727.61,-331.2 601.87,-331.2 601.87,-331.2 595.87,-331.2 589.87,-325.2 589.87,-319.2 589.87,-319.2 589.87,-251.2 589.87,-251.2 589.87,-245.2 595.87,-239.2 601.87,-239.2 601.87,-239.2 727.61,-239.2 727.61,-239.2 733.61,-239.2 739.61,-245.2 739.61,-251.2 739.61,-251.2 739.61,-319.2 739.61,-319.2 739.61,-325.2 733.61,-331.2 727.61,-331.2"/>
<text text-anchor="middle" x="664.74" y="-314.6" font-family="Helvetica,sans-Serif" font-size="14.00">repeat_retailer &lt;= 0.5</text>
<text text-anchor="middle" x="664.74" y="-297.8" font-family="Helvetica,sans-Serif" font-size="14.00">gini = 0.192</text>
<text text-anchor="middle" x="664.74" y="-281" font-family="Helvetica,sans-Serif" font-size="14.00">samples = 2951</text>
<text text-anchor="middle" x="664.74" y="-264.2" font-family="Helvetica,sans-Serif" font-size="14.00">value = [2634, 317]</text>
<text text-anchor="middle" x="664.74" y="-247.4" font-family="Helvetica,sans-Serif" font-size="14.00" style="">class = fraud</text>
</g>
<!-- 10&#45;&gt;14 -->
<g id="edge14" class="edge" data-name="10-&gt;14">

<path fill="none" stroke="black" d="M660.27,-366.71C660.7,-359.04 661.14,-350.99 661.58,-343.07"/>
<polygon fill="black" stroke="black" points="665.08,-343.31 662.14,-333.13 658.09,-342.92 665.08,-343.31"/>
</g>
<!-- 12 -->
<g id="node13" class="node" pointer-events="visible" data-name="12">

<path fill="#399de5" stroke="black" d="M424.66,-194.9C424.66,-194.9 328.83,-194.9 328.83,-194.9 322.83,-194.9 316.83,-188.9 316.83,-182.9 316.83,-182.9 316.83,-131.5 316.83,-131.5 316.83,-125.5 322.83,-119.5 328.83,-119.5 328.83,-119.5 424.66,-119.5 424.66,-119.5 430.66,-119.5 436.66,-125.5 436.66,-131.5 436.66,-131.5 436.66,-182.9 436.66,-182.9 436.66,-188.9 430.66,-194.9 424.66,-194.9"/>
<text text-anchor="middle" x="376.74" y="-178.2" font-family="Helvetica,sans-Serif" font-size="14.00">gini = 0.0</text>
<text text-anchor="middle" x="376.74" y="-161.4" font-family="Helvetica,sans-Serif" font-size="14.00">samples = 4743</text>
<text text-anchor="middle" x="376.74" y="-144.6" font-family="Helvetica,sans-Serif" font-size="14.00">value = [0, 4743]</text>
<text text-anchor="middle" x="376.74" y="-127.8" font-family="Helvetica,sans-Serif" font-size="14.00" style="">class = not fraud</text>
</g>
<!-- 11&#45;&gt;12 -->
<g id="edge12" class="edge" data-name="11-&gt;12">

<path fill="none" stroke="black" d="M457.89,-238.71C446.23,-227.14 433.71,-214.72 422.07,-203.17"/>
<polygon fill="black" stroke="black" points="424.82,-200.97 415.26,-196.41 419.89,-205.94 424.82,-200.97"/>
</g>
<!-- 13 -->
<g id="node14" class="node" pointer-events="visible" data-name="13">

<path fill="#e58139" stroke="black" d="M554.87,-194.9C554.87,-194.9 466.62,-194.9 466.62,-194.9 460.62,-194.9 454.62,-188.9 454.62,-182.9 454.62,-182.9 454.62,-131.5 454.62,-131.5 454.62,-125.5 460.62,-119.5 466.62,-119.5 466.62,-119.5 554.87,-119.5 554.87,-119.5 560.87,-119.5 566.87,-125.5 566.87,-131.5 566.87,-131.5 566.87,-182.9 566.87,-182.9 566.87,-188.9 560.87,-194.9 554.87,-194.9"/>
<text text-anchor="middle" x="510.74" y="-178.2" font-family="Helvetica,sans-Serif" font-size="14.00">gini = 0.0</text>
<text text-anchor="middle" x="510.74" y="-161.4" font-family="Helvetica,sans-Serif" font-size="14.00">samples = 557</text>
<text text-anchor="middle" x="510.74" y="-144.6" font-family="Helvetica,sans-Serif" font-size="14.00">value = [557, 0]</text>
<text text-anchor="middle" x="510.74" y="-127.8" font-family="Helvetica,sans-Serif" font-size="14.00" style="">class = fraud</text>
</g>
<!-- 11&#45;&gt;13 -->
<g id="edge13" class="edge" data-name="11-&gt;13">

<path fill="none" stroke="black" d="M506.27,-238.71C506.85,-228.25 507.47,-217.1 508.06,-206.53"/>
<polygon fill="black" stroke="black" points="511.53,-207.03 508.6,-196.86 504.55,-206.65 511.53,-207.03"/>
</g>
<!-- 15 -->
<g id="node16" class="node" pointer-events="visible" data-name="15">

<path fill="#55abe9" stroke="black" d="M699.66,-203.2C699.66,-203.2 603.83,-203.2 603.83,-203.2 597.83,-203.2 591.83,-197.2 591.83,-191.2 591.83,-191.2 591.83,-123.2 591.83,-123.2 591.83,-117.2 597.83,-111.2 603.83,-111.2 603.83,-111.2 699.66,-111.2 699.66,-111.2 705.66,-111.2 711.66,-117.2 711.66,-123.2 711.66,-123.2 711.66,-191.2 711.66,-191.2 711.66,-197.2 705.66,-203.2 699.66,-203.2"/>
<text text-anchor="middle" x="651.74" y="-186.6" font-family="Helvetica,sans-Serif" font-size="14.00">used_pin &lt;= 0.5</text>
<text text-anchor="middle" x="651.74" y="-169.8" font-family="Helvetica,sans-Serif" font-size="14.00">gini = 0.218</text>
<text text-anchor="middle" x="651.74" y="-153" font-family="Helvetica,sans-Serif" font-size="14.00">samples = 362</text>
<text text-anchor="middle" x="651.74" y="-136.2" font-family="Helvetica,sans-Serif" font-size="14.00">value = [45, 317]</text>
<text text-anchor="middle" x="651.74" y="-119.4" font-family="Helvetica,sans-Serif" font-size="14.00" style="">class = not fraud</text>
</g>
<!-- 14&#45;&gt;15 -->
<g id="edge15" class="edge" data-name="14-&gt;15">

<path fill="none" stroke="black" d="M660.05,-238.71C659.26,-231.04 658.43,-222.99 657.61,-215.07"/>
<polygon fill="black" stroke="black" points="661.09,-214.72 656.58,-205.13 654.13,-215.43 661.09,-214.72"/>
</g>
<!-- 18 -->
<g id="node19" class="node" pointer-events="visible" data-name="18">

<path fill="#e58139" stroke="black" d="M837.66,-194.9C837.66,-194.9 741.83,-194.9 741.83,-194.9 735.83,-194.9 729.83,-188.9 729.83,-182.9 729.83,-182.9 729.83,-131.5 729.83,-131.5 729.83,-125.5 735.83,-119.5 741.83,-119.5 741.83,-119.5 837.66,-119.5 837.66,-119.5 843.66,-119.5 849.66,-125.5 849.66,-131.5 849.66,-131.5 849.66,-182.9 849.66,-182.9 849.66,-188.9 843.66,-194.9 837.66,-194.9"/>
<text text-anchor="middle" x="789.74" y="-178.2" font-family="Helvetica,sans-Serif" font-size="14.00">gini = 0.0</text>
<text text-anchor="middle" x="789.74" y="-161.4" font-family="Helvetica,sans-Serif" font-size="14.00">samples = 2589</text>
<text text-anchor="middle" x="789.74" y="-144.6" font-family="Helvetica,sans-Serif" font-size="14.00">value = [2589, 0]</text>
<text text-anchor="middle" x="789.74" y="-127.8" font-family="Helvetica,sans-Serif" font-size="14.00" style="">class = fraud</text>
</g>
<!-- 14&#45;&gt;18 -->
<g id="edge18" class="edge" data-name="14-&gt;18">

<path fill="none" stroke="black" d="M709.87,-238.71C721.24,-227.25 733.44,-214.96 744.8,-203.51"/>
<polygon fill="black" stroke="black" points="747.27,-205.98 751.83,-196.42 742.3,-201.05 747.27,-205.98"/>
</g>
<!-- 16 -->
<g id="node17" class="node" pointer-events="visible" data-name="16">

<path fill="#399de5" stroke="black" d="M634.36,-75.3C634.36,-75.3 539.13,-75.3 539.13,-75.3 533.13,-75.3 527.13,-69.3 527.13,-63.3 527.13,-63.3 527.13,-11.9 527.13,-11.9 527.13,-5.9 533.13,0.1 539.13,0.1 539.13,0.1 634.36,0.1 634.36,0.1 640.36,0.1 646.36,-5.9 646.36,-11.9 646.36,-11.9 646.36,-63.3 646.36,-63.3 646.36,-69.3 640.36,-75.3 634.36,-75.3"/>
<text text-anchor="middle" x="586.74" y="-58.6" font-family="Helvetica,sans-Serif" font-size="14.00">gini = 0.0</text>
<text text-anchor="middle" x="586.74" y="-41.8" font-family="Helvetica,sans-Serif" font-size="14.00">samples = 317</text>
<text text-anchor="middle" x="586.74" y="-25" font-family="Helvetica,sans-Serif" font-size="14.00">value = [0, 317]</text>
<text text-anchor="middle" x="586.74" y="-8.2" font-family="Helvetica,sans-Serif" font-size="14.00" style="">class = not fraud</text>
</g>
<!-- 15&#45;&gt;16 -->
<g id="edge16" class="edge" data-name="15-&gt;16">

<path fill="none" stroke="black" d="M626.61,-110.73C622.04,-102.46 617.26,-93.82 612.67,-85.51"/>
<polygon fill="black" stroke="black" points="615.82,-83.96 607.91,-76.9 609.69,-87.35 615.82,-83.96"/>
</g>
<!-- 17 -->
<g id="node18" class="node" pointer-events="visible" data-name="17">

<path fill="#e58139" stroke="black" d="M757.08,-75.3C757.08,-75.3 676.4,-75.3 676.4,-75.3 670.4,-75.3 664.4,-69.3 664.4,-63.3 664.4,-63.3 664.4,-11.9 664.4,-11.9 664.4,-5.9 670.4,0.1 676.4,0.1 676.4,0.1 757.08,0.1 757.08,0.1 763.08,0.1 769.08,-5.9 769.08,-11.9 769.08,-11.9 769.08,-63.3 769.08,-63.3 769.08,-69.3 763.08,-75.3 757.08,-75.3"/>
<text text-anchor="middle" x="716.74" y="-58.6" font-family="Helvetica,sans-Serif" font-size="14.00">gini = 0.0</text>
<text text-anchor="middle" x="716.74" y="-41.8" font-family="Helvetica,sans-Serif" font-size="14.00">samples = 45</text>
<text text-anchor="middle" x="716.74" y="-25" font-family="Helvetica,sans-Serif" font-size="14.00">value = [45, 0]</text>
<text text-anchor="middle" x="716.74" y="-8.2" font-family="Helvetica,sans-Serif" font-size="14.00" style="">class = fraud</text>
</g>
<!-- 15&#45;&gt;17 -->
<g id="edge17" class="edge" data-name="15-&gt;17">

<path fill="none" stroke="black" d="M676.87,-110.73C681.45,-102.46 686.22,-93.82 690.82,-85.51"/>
<polygon fill="black" stroke="black" points="693.8,-87.35 695.57,-76.9 687.67,-83.96 693.8,-87.35"/>
</g>
<!-- 20 -->
<g id="node21" class="node" pointer-events="visible" data-name="20">

<path fill="#e5833c" stroke="black" d="M1063.18,-587.2C1063.18,-587.2 818.31,-587.2 818.31,-587.2 812.31,-587.2 806.31,-581.2 806.31,-575.2 806.31,-575.2 806.31,-507.2 806.31,-507.2 806.31,-501.2 812.31,-495.2 818.31,-495.2 818.31,-495.2 1063.18,-495.2 1063.18,-495.2 1069.18,-495.2 1075.18,-501.2 1075.18,-507.2 1075.18,-507.2 1075.18,-575.2 1075.18,-575.2 1075.18,-581.2 1069.18,-587.2 1063.18,-587.2"/>
<text text-anchor="middle" x="940.74" y="-570.6" font-family="Helvetica,sans-Serif" font-size="14.00">distance_from_last_transaction &lt;= 50.14</text>
<text text-anchor="middle" x="940.74" y="-553.8" font-family="Helvetica,sans-Serif" font-size="14.00">gini = 0.027</text>
<text text-anchor="middle" x="940.74" y="-537" font-family="Helvetica,sans-Serif" font-size="14.00">samples = 15626</text>
<text text-anchor="middle" x="940.74" y="-520.2" font-family="Helvetica,sans-Serif" font-size="14.00">value = [15410, 216]</text>
<text text-anchor="middle" x="940.74" y="-503.4" font-family="Helvetica,sans-Serif" font-size="14.00" style="">class = fraud</text>
</g>
<!-- 19&#45;&gt;20 -->
<g id="edge20" class="edge" data-name="19-&gt;20">

<path fill="none" stroke="black" d="M1014.86,-622.71C1006.9,-614.06 998.49,-604.92 990.31,-596.04"/>
<polygon fill="black" stroke="black" points="992.93,-593.72 983.59,-588.74 987.78,-598.46 992.93,-593.72"/>
</g>
<!-- 25 -->
<g id="node26" class="node" pointer-events="visible" data-name="25">

<path fill="#c2e1f7" stroke="black" d="M1240.09,-587.2C1240.09,-587.2 1105.4,-587.2 1105.4,-587.2 1099.4,-587.2 1093.4,-581.2 1093.4,-575.2 1093.4,-575.2 1093.4,-507.2 1093.4,-507.2 1093.4,-501.2 1099.4,-495.2 1105.4,-495.2 1105.4,-495.2 1240.09,-495.2 1240.09,-495.2 1246.09,-495.2 1252.09,-501.2 1252.09,-507.2 1252.09,-507.2 1252.09,-575.2 1252.09,-575.2 1252.09,-581.2 1246.09,-587.2 1240.09,-587.2"/>
<text text-anchor="middle" x="1172.74" y="-570.6" font-family="Helvetica,sans-Serif" font-size="14.00">used_chip &lt;= 0.5</text>
<text text-anchor="middle" x="1172.74" y="-553.8" font-family="Helvetica,sans-Serif" font-size="14.00">gini = 0.483</text>
<text text-anchor="middle" x="1172.74" y="-537" font-family="Helvetica,sans-Serif" font-size="14.00">samples = 29053</text>
<text text-anchor="middle" x="1172.74" y="-520.2" font-family="Helvetica,sans-Serif" font-size="14.00">value = [11878, 17175]</text>
<text text-anchor="middle" x="1172.74" y="-503.4" font-family="Helvetica,sans-Serif" font-size="14.00" style="">class = not fraud</text>
</g>
<!-- 19&#45;&gt;25 -->
<g id="edge25" class="edge" data-name="19-&gt;25">

<path fill="none" stroke="black" d="M1098.62,-622.71C1106.59,-614.06 1115,-604.92 1123.18,-596.04"/>
<polygon fill="black" stroke="black" points="1125.7,-598.46 1129.9,-588.74 1120.55,-593.72 1125.7,-598.46"/>
</g>
<!-- 21 -->
<g id="node22" class="node" pointer-events="visible" data-name="21">

<path fill="#e58139" stroke="black" d="M862.44,-450.9C862.44,-450.9 759.04,-450.9 759.04,-450.9 753.04,-450.9 747.04,-444.9 747.04,-438.9 747.04,-438.9 747.04,-387.5 747.04,-387.5 747.04,-381.5 753.04,-375.5 759.04,-375.5 759.04,-375.5 862.44,-375.5 862.44,-375.5 868.44,-375.5 874.44,-381.5 874.44,-387.5 874.44,-387.5 874.44,-438.9 874.44,-438.9 874.44,-444.9 868.44,-450.9 862.44,-450.9"/>
<text text-anchor="middle" x="810.74" y="-434.2" font-family="Helvetica,sans-Serif" font-size="14.00">gini = 0.0</text>
<text text-anchor="middle" x="810.74" y="-417.4" font-family="Helvetica,sans-Serif" font-size="14.00">samples = 15382</text>
<text text-anchor="middle" x="810.74" y="-400.6" font-family="Helvetica,sans-Serif" font-size="14.00">value = [15382, 0]</text>
<text text-anchor="middle" x="810.74" y="-383.8" font-family="Helvetica,sans-Serif" font-size="14.00" style="">class = fraud</text>
</g>
<!-- 20&#45;&gt;21 -->
<g id="edge21" class="edge" data-name="20-&gt;21">

<path fill="none" stroke="black" d="M893.81,-494.71C881.87,-483.14 869.05,-470.72 857.14,-459.17"/>
<polygon fill="black" stroke="black" points="859.77,-456.84 850.15,-452.4 854.9,-461.87 859.77,-456.84"/>
</g>
<!-- 22 -->
<g id="node23" class="node" pointer-events="visible" data-name="22">

<path fill="#53aae8" stroke="black" d="M1000.66,-459.2C1000.66,-459.2 904.83,-459.2 904.83,-459.2 898.83,-459.2 892.83,-453.2 892.83,-447.2 892.83,-447.2 892.83,-379.2 892.83,-379.2 892.83,-373.2 898.83,-367.2 904.83,-367.2 904.83,-367.2 1000.66,-367.2 1000.66,-367.2 1006.66,-367.2 1012.66,-373.2 1012.66,-379.2 1012.66,-379.2 1012.66,-447.2 1012.66,-447.2 1012.66,-453.2 1006.66,-459.2 1000.66,-459.2"/>
<text text-anchor="middle" x="952.74" y="-442.6" font-family="Helvetica,sans-Serif" font-size="14.00">used_pin &lt;= 0.5</text>
<text text-anchor="middle" x="952.74" y="-425.8" font-family="Helvetica,sans-Serif" font-size="14.00">gini = 0.203</text>
<text text-anchor="middle" x="952.74" y="-409" font-family="Helvetica,sans-Serif" font-size="14.00">samples = 244</text>
<text text-anchor="middle" x="952.74" y="-392.2" font-family="Helvetica,sans-Serif" font-size="14.00">value = [28, 216]</text>
<text text-anchor="middle" x="952.74" y="-375.4" font-family="Helvetica,sans-Serif" font-size="14.00" style="">class = not fraud</text>
</g>
<!-- 20&#45;&gt;22 -->
<g id="edge22" class="edge" data-name="20-&gt;22">

<path fill="none" stroke="black" d="M945.07,-494.71C945.81,-487.04 946.57,-478.99 947.33,-471.07"/>
<polygon fill="black" stroke="black" points="950.81,-471.42 948.27,-461.13 943.84,-470.75 950.81,-471.42"/>
</g>
<!-- 23 -->
<g id="node24" class="node" pointer-events="visible" data-name="23">

<path fill="#399de5" stroke="black" d="M870.36,-322.9C870.36,-322.9 775.13,-322.9 775.13,-322.9 769.13,-322.9 763.13,-316.9 763.13,-310.9 763.13,-310.9 763.13,-259.5 763.13,-259.5 763.13,-253.5 769.13,-247.5 775.13,-247.5 775.13,-247.5 870.36,-247.5 870.36,-247.5 876.36,-247.5 882.36,-253.5 882.36,-259.5 882.36,-259.5 882.36,-310.9 882.36,-310.9 882.36,-316.9 876.36,-322.9 870.36,-322.9"/>
<text text-anchor="middle" x="822.74" y="-306.2" font-family="Helvetica,sans-Serif" font-size="14.00">gini = 0.0</text>
<text text-anchor="middle" x="822.74" y="-289.4" font-family="Helvetica,sans-Serif" font-size="14.00">samples = 216</text>
<text text-anchor="middle" x="822.74" y="-272.6" font-family="Helvetica,sans-Serif" font-size="14.00">value = [0, 216]</text>
<text text-anchor="middle" x="822.74" y="-255.8" font-family="Helvetica,sans-Serif" font-size="14.00" style="">class = not fraud</text>
</g>
<!-- 22&#45;&gt;23 -->
<g id="edge23" class="edge" data-name="22-&gt;23">

<path fill="none" stroke="black" d="M905.81,-366.71C893.87,-355.14 881.05,-342.72 869.14,-331.17"/>
<polygon fill="black" stroke="black" points="871.77,-328.84 862.15,-324.4 866.9,-333.87 871.77,-328.84"/>
</g>
<!-- 24 -->
<g id="node25" class="node" pointer-events="visible" data-name="24">

<path fill="#e58139" stroke="black" d="M993.08,-322.9C993.08,-322.9 912.4,-322.9 912.4,-322.9 906.4,-322.9 900.4,-316.9 900.4,-310.9 900.4,-310.9 900.4,-259.5 900.4,-259.5 900.4,-253.5 906.4,-247.5 912.4,-247.5 912.4,-247.5 993.08,-247.5 993.08,-247.5 999.08,-247.5 1005.08,-253.5 1005.08,-259.5 1005.08,-259.5 1005.08,-310.9 1005.08,-310.9 1005.08,-316.9 999.08,-322.9 993.08,-322.9"/>
<text text-anchor="middle" x="952.74" y="-306.2" font-family="Helvetica,sans-Serif" font-size="14.00">gini = 0.0</text>
<text text-anchor="middle" x="952.74" y="-289.4" font-family="Helvetica,sans-Serif" font-size="14.00">samples = 28</text>
<text text-anchor="middle" x="952.74" y="-272.6" font-family="Helvetica,sans-Serif" font-size="14.00">value = [28, 0]</text>
<text text-anchor="middle" x="952.74" y="-255.8" font-family="Helvetica,sans-Serif" font-size="14.00" style="">class = fraud</text>
</g>
<!-- 22&#45;&gt;24 -->
<g id="edge24" class="edge" data-name="22-&gt;24">

<path fill="none" stroke="black" d="M952.74,-366.71C952.74,-356.25 952.74,-345.1 952.74,-334.53"/>
<polygon fill="black" stroke="black" points="956.24,-334.86 952.74,-324.86 949.24,-334.86 956.24,-334.86"/>
</g>
<!-- 26 -->
<g id="node27" class="node" pointer-events="visible" data-name="26">

<path fill="#4fa8e8" stroke="black" d="M1225.3,-459.2C1225.3,-459.2 1098.19,-459.2 1098.19,-459.2 1092.19,-459.2 1086.19,-453.2 1086.19,-447.2 1086.19,-447.2 1086.19,-379.2 1086.19,-379.2 1086.19,-373.2 1092.19,-367.2 1098.19,-367.2 1098.19,-367.2 1225.3,-367.2 1225.3,-367.2 1231.3,-367.2 1237.3,-373.2 1237.3,-379.2 1237.3,-379.2 1237.3,-447.2 1237.3,-447.2 1237.3,-453.2 1231.3,-459.2 1225.3,-459.2"/>
<text text-anchor="middle" x="1161.74" y="-442.6" font-family="Helvetica,sans-Serif" font-size="14.00">used_pin &lt;= 0.5</text>
<text text-anchor="middle" x="1161.74" y="-425.8" font-family="Helvetica,sans-Serif" font-size="14.00">gini = 0.177</text>
<text text-anchor="middle" x="1161.74" y="-409" font-family="Helvetica,sans-Serif" font-size="14.00">samples = 18902</text>
<text text-anchor="middle" x="1161.74" y="-392.2" font-family="Helvetica,sans-Serif" font-size="14.00">value = [1860, 17042]</text>
<text text-anchor="middle" x="1161.74" y="-375.4" font-family="Helvetica,sans-Serif" font-size="14.00" style="">class = not fraud</text>
</g>
<!-- 25&#45;&gt;26 -->
<g id="edge26" class="edge" data-name="25-&gt;26">

<path fill="none" stroke="black" d="M1168.77,-494.71C1168.1,-487.04 1167.4,-478.99 1166.71,-471.07"/>
<polygon fill="black" stroke="black" points="1170.2,-470.79 1165.84,-461.13 1163.22,-471.4 1170.2,-470.79"/>
</g>
<!-- 29 -->
<g id="node30" class="node" pointer-events="visible" data-name="29">

<path fill="#e5833c" stroke="black" d="M1519.97,-459.2C1519.97,-459.2 1267.52,-459.2 1267.52,-459.2 1261.52,-459.2 1255.52,-453.2 1255.52,-447.2 1255.52,-447.2 1255.52,-379.2 1255.52,-379.2 1255.52,-373.2 1261.52,-367.2 1267.52,-367.2 1267.52,-367.2 1519.97,-367.2 1519.97,-367.2 1525.97,-367.2 1531.97,-373.2 1531.97,-379.2 1531.97,-379.2 1531.97,-447.2 1531.97,-447.2 1531.97,-453.2 1525.97,-459.2 1519.97,-459.2"/>
<text text-anchor="middle" x="1393.74" y="-442.6" font-family="Helvetica,sans-Serif" font-size="14.00">distance_from_last_transaction &lt;= 50.575</text>
<text text-anchor="middle" x="1393.74" y="-425.8" font-family="Helvetica,sans-Serif" font-size="14.00">gini = 0.026</text>
<text text-anchor="middle" x="1393.74" y="-409" font-family="Helvetica,sans-Serif" font-size="14.00">samples = 10151</text>
<text text-anchor="middle" x="1393.74" y="-392.2" font-family="Helvetica,sans-Serif" font-size="14.00">value = [10018, 133]</text>
<text text-anchor="middle" x="1393.74" y="-375.4" font-family="Helvetica,sans-Serif" font-size="14.00" style="">class = fraud</text>
</g>
<!-- 25&#45;&gt;29 -->
<g id="edge29" class="edge" data-name="25-&gt;29">

<path fill="none" stroke="black" d="M1252.53,-494.71C1269.27,-485.17 1287.04,-475.04 1304.11,-465.3"/>
<polygon fill="black" stroke="black" points="1305.81,-468.37 1312.76,-460.37 1302.34,-462.28 1305.81,-468.37"/>
</g>
<!-- 27 -->
<g id="node28" class="node" pointer-events="visible" data-name="27">

<path fill="#399de5" stroke="black" d="M1138.44,-322.9C1138.44,-322.9 1035.04,-322.9 1035.04,-322.9 1029.04,-322.9 1023.04,-316.9 1023.04,-310.9 1023.04,-310.9 1023.04,-259.5 1023.04,-259.5 1023.04,-253.5 1029.04,-247.5 1035.04,-247.5 1035.04,-247.5 1138.44,-247.5 1138.44,-247.5 1144.44,-247.5 1150.44,-253.5 1150.44,-259.5 1150.44,-259.5 1150.44,-310.9 1150.44,-310.9 1150.44,-316.9 1144.44,-322.9 1138.44,-322.9"/>
<text text-anchor="middle" x="1086.74" y="-306.2" font-family="Helvetica,sans-Serif" font-size="14.00">gini = 0.0</text>
<text text-anchor="middle" x="1086.74" y="-289.4" font-family="Helvetica,sans-Serif" font-size="14.00">samples = 17042</text>
<text text-anchor="middle" x="1086.74" y="-272.6" font-family="Helvetica,sans-Serif" font-size="14.00">value = [0, 17042]</text>
<text text-anchor="middle" x="1086.74" y="-255.8" font-family="Helvetica,sans-Serif" font-size="14.00" style="">class = not fraud</text>
</g>
<!-- 26&#45;&gt;27 -->
<g id="edge27" class="edge" data-name="26-&gt;27">

<path fill="none" stroke="black" d="M1134.67,-366.71C1128.18,-355.81 1121.24,-344.15 1114.71,-333.18"/>
<polygon fill="black" stroke="black" points="1117.75,-331.45 1109.63,-324.64 1111.73,-335.03 1117.75,-331.45"/>
</g>
<!-- 28 -->
<g id="node29" class="node" pointer-events="visible" data-name="28">

<path fill="#e58139" stroke="black" d="M1276.66,-322.9C1276.66,-322.9 1180.83,-322.9 1180.83,-322.9 1174.83,-322.9 1168.83,-316.9 1168.83,-310.9 1168.83,-310.9 1168.83,-259.5 1168.83,-259.5 1168.83,-253.5 1174.83,-247.5 1180.83,-247.5 1180.83,-247.5 1276.66,-247.5 1276.66,-247.5 1282.66,-247.5 1288.66,-253.5 1288.66,-259.5 1288.66,-259.5 1288.66,-310.9 1288.66,-310.9 1288.66,-316.9 1282.66,-322.9 1276.66,-322.9"/>
<text text-anchor="middle" x="1228.74" y="-306.2" font-family="Helvetica,sans-Serif" font-size="14.00">gini = 0.0</text>
<text text-anchor="middle" x="1228.74" y="-289.4" font-family="Helvetica,sans-Serif" font-size="14.00">samples = 1860</text>
<text text-anchor="middle" x="1228.74" y="-272.6" font-family="Helvetica,sans-Serif" font-size="14.00">value = [1860, 0]</text>
<text text-anchor="middle" x="1228.74" y="-255.8" font-family="Helvetica,sans-Serif" font-size="14.00" style="">class = fraud</text>
</g>
<!-- 26&#45;&gt;28 -->
<g id="edge28" class="edge" data-name="26-&gt;28">

<path fill="none" stroke="black" d="M1185.93,-366.71C1191.73,-355.81 1197.93,-344.15 1203.76,-333.18"/>
<polygon fill="black" stroke="black" points="1206.68,-335.15 1208.28,-324.68 1200.5,-331.87 1206.68,-335.15"/>
</g>
<!-- 30 -->
<g id="node31" class="node" pointer-events="visible" data-name="30">

<path fill="#e58139" stroke="black" d="M1422.44,-322.9C1422.44,-322.9 1319.04,-322.9 1319.04,-322.9 1313.04,-322.9 1307.04,-316.9 1307.04,-310.9 1307.04,-310.9 1307.04,-259.5 1307.04,-259.5 1307.04,-253.5 1313.04,-247.5 1319.04,-247.5 1319.04,-247.5 1422.44,-247.5 1422.44,-247.5 1428.44,-247.5 1434.44,-253.5 1434.44,-259.5 1434.44,-259.5 1434.44,-310.9 1434.44,-310.9 1434.44,-316.9 1428.44,-322.9 1422.44,-322.9"/>
<text text-anchor="middle" x="1370.74" y="-306.2" font-family="Helvetica,sans-Serif" font-size="14.00">gini = 0.0</text>
<text text-anchor="middle" x="1370.74" y="-289.4" font-family="Helvetica,sans-Serif" font-size="14.00">samples = 10001</text>
<text text-anchor="middle" x="1370.74" y="-272.6" font-family="Helvetica,sans-Serif" font-size="14.00">value = [10001, 0]</text>
<text text-anchor="middle" x="1370.74" y="-255.8" font-family="Helvetica,sans-Serif" font-size="14.00" style="">class = fraud</text>
</g>
<!-- 29&#45;&gt;30 -->
<g id="edge30" class="edge" data-name="29-&gt;30">

<path fill="none" stroke="black" d="M1385.44,-366.71C1383.53,-356.25 1381.49,-345.1 1379.56,-334.53"/>
<polygon fill="black" stroke="black" points="1383.03,-334.04 1377.79,-324.83 1376.15,-335.3 1383.03,-334.04"/>
</g>
<!-- 31 -->
<g id="node32" class="node" pointer-events="visible" data-name="31">

<path fill="#52aae8" stroke="black" d="M1560.66,-331.2C1560.66,-331.2 1464.83,-331.2 1464.83,-331.2 1458.83,-331.2 1452.83,-325.2 1452.83,-319.2 1452.83,-319.2 1452.83,-251.2 1452.83,-251.2 1452.83,-245.2 1458.83,-239.2 1464.83,-239.2 1464.83,-239.2 1560.66,-239.2 1560.66,-239.2 1566.66,-239.2 1572.66,-245.2 1572.66,-251.2 1572.66,-251.2 1572.66,-319.2 1572.66,-319.2 1572.66,-325.2 1566.66,-331.2 1560.66,-331.2"/>
<text text-anchor="middle" x="1512.74" y="-314.6" font-family="Helvetica,sans-Serif" font-size="14.00">used_pin &lt;= 0.5</text>
<text text-anchor="middle" x="1512.74" y="-297.8" font-family="Helvetica,sans-Serif" font-size="14.00">gini = 0.201</text>
<text text-anchor="middle" x="1512.74" y="-281" font-family="Helvetica,sans-Serif" font-size="14.00">samples = 150</text>
<text text-anchor="middle" x="1512.74" y="-264.2" font-family="Helvetica,sans-Serif" font-size="14.00">value = [17, 133]</text>
<text text-anchor="middle" x="1512.74" y="-247.4" font-family="Helvetica,sans-Serif" font-size="14.00" style="">class = not fraud</text>
</g>
<!-- 29&#45;&gt;31 -->
<g id="edge31" class="edge" data-name="29-&gt;31">

<path fill="none" stroke="black" d="M1436.7,-366.71C1444.96,-357.97 1453.68,-348.74 1462.15,-339.77"/>
<polygon fill="black" stroke="black" points="1464.48,-342.4 1468.8,-332.72 1459.39,-337.59 1464.48,-342.4"/>
</g>
<!-- 32 -->
<g id="node33" class="node" pointer-events="visible" data-name="32">

<path fill="#399de5" stroke="black" d="M1430.36,-194.9C1430.36,-194.9 1335.13,-194.9 1335.13,-194.9 1329.13,-194.9 1323.13,-188.9 1323.13,-182.9 1323.13,-182.9 1323.13,-131.5 1323.13,-131.5 1323.13,-125.5 1329.13,-119.5 1335.13,-119.5 1335.13,-119.5 1430.36,-119.5 1430.36,-119.5 1436.36,-119.5 1442.36,-125.5 1442.36,-131.5 1442.36,-131.5 1442.36,-182.9 1442.36,-182.9 1442.36,-188.9 1436.36,-194.9 1430.36,-194.9"/>
<text text-anchor="middle" x="1382.74" y="-178.2" font-family="Helvetica,sans-Serif" font-size="14.00">gini = 0.0</text>
<text text-anchor="middle" x="1382.74" y="-161.4" font-family="Helvetica,sans-Serif" font-size="14.00">samples = 133</text>
<text text-anchor="middle" x="1382.74" y="-144.6" font-family="Helvetica,sans-Serif" font-size="14.00">value = [0, 133]</text>
<text text-anchor="middle" x="1382.74" y="-127.8" font-family="Helvetica,sans-Serif" font-size="14.00" style="">class = not fraud</text>
</g>
<!-- 31&#45;&gt;32 -->
<g id="edge32" class="edge" data-name="31-&gt;32">

<path fill="none" stroke="black" d="M1465.81,-238.71C1453.87,-227.14 1441.05,-214.72 1429.14,-203.17"/>
<polygon fill="black" stroke="black" points="1431.77,-200.84 1422.15,-196.4 1426.9,-205.87 1431.77,-200.84"/>
</g>
<!-- 33 -->
<g id="node34" class="node" pointer-events="visible" data-name="33">

<path fill="#e58139" stroke="black" d="M1553.08,-194.9C1553.08,-194.9 1472.4,-194.9 1472.4,-194.9 1466.4,-194.9 1460.4,-188.9 1460.4,-182.9 1460.4,-182.9 1460.4,-131.5 1460.4,-131.5 1460.4,-125.5 1466.4,-119.5 1472.4,-119.5 1472.4,-119.5 1553.08,-119.5 1553.08,-119.5 1559.08,-119.5 1565.08,-125.5 1565.08,-131.5 1565.08,-131.5 1565.08,-182.9 1565.08,-182.9 1565.08,-188.9 1559.08,-194.9 1553.08,-194.9"/>
<text text-anchor="middle" x="1512.74" y="-178.2" font-family="Helvetica,sans-Serif" font-size="14.00">gini = 0.0</text>
<text text-anchor="middle" x="1512.74" y="-161.4" font-family="Helvetica,sans-Serif" font-size="14.00">samples = 17</text>
<text text-anchor="middle" x="1512.74" y="-144.6" font-family="Helvetica,sans-Serif" font-size="14.00">value = [17, 0]</text>
<text text-anchor="middle" x="1512.74" y="-127.8" font-family="Helvetica,sans-Serif" font-size="14.00" style="">class = fraud</text>
</g>
<!-- 31&#45;&gt;33 -->
<g id="edge33" class="edge" data-name="31-&gt;33">

<path fill="none" stroke="black" d="M1512.74,-238.71C1512.74,-228.25 1512.74,-217.1 1512.74,-206.53"/>
<polygon fill="black" stroke="black" points="1516.24,-206.86 1512.74,-196.86 1509.24,-206.86 1516.24,-206.86"/>
</g>
<!-- 35 -->
<g id="node36" class="node" pointer-events="visible" data-name="35">

<path fill="#e99355" stroke="black" d="M2337.72,-715.2C2337.72,-715.2 2139.77,-715.2 2139.77,-715.2 2133.77,-715.2 2127.77,-709.2 2127.77,-703.2 2127.77,-703.2 2127.77,-635.2 2127.77,-635.2 2127.77,-629.2 2133.77,-623.2 2139.77,-623.2 2139.77,-623.2 2337.72,-623.2 2337.72,-623.2 2343.72,-623.2 2349.72,-629.2 2349.72,-635.2 2349.72,-635.2 2349.72,-703.2 2349.72,-703.2 2349.72,-709.2 2343.72,-715.2 2337.72,-715.2"/>
<text text-anchor="middle" x="2238.74" y="-698.6" font-family="Helvetica,sans-Serif" font-size="14.00">distance_from_home &lt;= 100.037</text>
<text text-anchor="middle" x="2238.74" y="-681.8" font-family="Helvetica,sans-Serif" font-size="14.00">gini = 0.217</text>
<text text-anchor="middle" x="2238.74" y="-665" font-family="Helvetica,sans-Serif" font-size="14.00">samples = 36190</text>
<text text-anchor="middle" x="2238.74" y="-648.2" font-family="Helvetica,sans-Serif" font-size="14.00">value = [31714, 4476]</text>
<text text-anchor="middle" x="2238.74" y="-631.4" font-family="Helvetica,sans-Serif" font-size="14.00" style="">class = fraud</text>
</g>
<!-- 34&#45;&gt;35 -->
<g id="edge35" class="edge" data-name="34-&gt;35">

<path fill="none" stroke="black" d="M2238.74,-750.71C2238.74,-743.04 2238.74,-734.99 2238.74,-727.07"/>
<polygon fill="black" stroke="black" points="2242.24,-727.14 2238.74,-717.14 2235.24,-727.14 2242.24,-727.14"/>
</g>
<!-- 56 -->
<g id="node57" class="node" pointer-events="visible" data-name="56">

<path fill="#4ea8e8" stroke="black" d="M2644.3,-715.2C2644.3,-715.2 2517.19,-715.2 2517.19,-715.2 2511.19,-715.2 2505.19,-709.2 2505.19,-703.2 2505.19,-703.2 2505.19,-635.2 2505.19,-635.2 2505.19,-629.2 2511.19,-623.2 2517.19,-623.2 2517.19,-623.2 2644.3,-623.2 2644.3,-623.2 2650.3,-623.2 2656.3,-629.2 2656.3,-635.2 2656.3,-635.2 2656.3,-703.2 2656.3,-703.2 2656.3,-709.2 2650.3,-715.2 2644.3,-715.2"/>
<text text-anchor="middle" x="2580.74" y="-698.6" font-family="Helvetica,sans-Serif" font-size="14.00">used_pin &lt;= 0.5</text>
<text text-anchor="middle" x="2580.74" y="-681.8" font-family="Helvetica,sans-Serif" font-size="14.00">gini = 0.175</text>
<text text-anchor="middle" x="2580.74" y="-665" font-family="Helvetica,sans-Serif" font-size="14.00">samples = 66968</text>
<text text-anchor="middle" x="2580.74" y="-648.2" font-family="Helvetica,sans-Serif" font-size="14.00">value = [6493, 60475]</text>
<text text-anchor="middle" x="2580.74" y="-631.4" font-family="Helvetica,sans-Serif" font-size="14.00" style="">class = not fraud</text>
</g>
<!-- 34&#45;&gt;56 -->
<g id="edge56" class="edge" data-name="34-&gt;56">

<path fill="none" stroke="black" d="M2318.49,-766.82C2371.14,-747.42 2440.1,-722.01 2494.1,-702.12"/>
<polygon fill="black" stroke="black" points="2495.09,-705.49 2503.27,-698.74 2492.67,-698.92 2495.09,-705.49"/>
</g>
<!-- 36 -->
<g id="node37" class="node" pointer-events="visible" data-name="36">

<path fill="#e78c4b" stroke="black" d="M2214.07,-587.2C2214.07,-587.2 2047.41,-587.2 2047.41,-587.2 2041.41,-587.2 2035.41,-581.2 2035.41,-575.2 2035.41,-575.2 2035.41,-507.2 2035.41,-507.2 2035.41,-501.2 2041.41,-495.2 2047.41,-495.2 2047.41,-495.2 2214.07,-495.2 2214.07,-495.2 2220.07,-495.2 2226.07,-501.2 2226.07,-507.2 2226.07,-507.2 2226.07,-575.2 2226.07,-575.2 2226.07,-581.2 2220.07,-587.2 2214.07,-587.2"/>
<text text-anchor="middle" x="2130.74" y="-570.6" font-family="Helvetica,sans-Serif" font-size="14.00">distance_from_home &lt;= 1.9</text>
<text text-anchor="middle" x="2130.74" y="-553.8" font-family="Helvetica,sans-Serif" font-size="14.00">gini = 0.153</text>
<text text-anchor="middle" x="2130.74" y="-537" font-family="Helvetica,sans-Serif" font-size="14.00">samples = 34415</text>
<text text-anchor="middle" x="2130.74" y="-520.2" font-family="Helvetica,sans-Serif" font-size="14.00">value = [31544, 2871]</text>
<text text-anchor="middle" x="2130.74" y="-503.4" font-family="Helvetica,sans-Serif" font-size="14.00" style="">class = fraud</text>
</g>
<!-- 35&#45;&gt;36 -->
<g id="edge36" class="edge" data-name="35-&gt;36">

<path fill="none" stroke="black" d="M2199.75,-622.71C2192.41,-614.15 2184.67,-605.11 2177.13,-596.32"/>
<polygon fill="black" stroke="black" points="2179.83,-594.09 2170.66,-588.77 2174.51,-598.64 2179.83,-594.09"/>
</g>
<!-- 51 -->
<g id="node52" class="node" pointer-events="visible" data-name="51">

<path fill="#4ea7e8" stroke="black" d="M2402.73,-587.2C2402.73,-587.2 2290.76,-587.2 2290.76,-587.2 2284.76,-587.2 2278.76,-581.2 2278.76,-575.2 2278.76,-575.2 2278.76,-507.2 2278.76,-507.2 2278.76,-501.2 2284.76,-495.2 2290.76,-495.2 2290.76,-495.2 2402.73,-495.2 2402.73,-495.2 2408.73,-495.2 2414.73,-501.2 2414.73,-507.2 2414.73,-507.2 2414.73,-575.2 2414.73,-575.2 2414.73,-581.2 2408.73,-587.2 2402.73,-587.2"/>
<text text-anchor="middle" x="2346.74" y="-570.6" font-family="Helvetica,sans-Serif" font-size="14.00">used_pin &lt;= 0.5</text>
<text text-anchor="middle" x="2346.74" y="-553.8" font-family="Helvetica,sans-Serif" font-size="14.00">gini = 0.173</text>
<text text-anchor="middle" x="2346.74" y="-537" font-family="Helvetica,sans-Serif" font-size="14.00">samples = 1775</text>
<text text-anchor="middle" x="2346.74" y="-520.2" font-family="Helvetica,sans-Serif" font-size="14.00">value = [170, 1605]</text>
<text text-anchor="middle" x="2346.74" y="-503.4" font-family="Helvetica,sans-Serif" font-size="14.00" style="">class = not fraud</text>
</g>
<!-- 35&#45;&gt;51 -->
<g id="edge51" class="edge" data-name="35-&gt;51">

<path fill="none" stroke="black" d="M2277.73,-622.71C2285.07,-614.15 2292.82,-605.11 2300.36,-596.32"/>
<polygon fill="black" stroke="black" points="2302.97,-598.64 2306.82,-588.77 2297.66,-594.09 2302.97,-598.64"/>
</g>
<!-- 37 -->
<g id="node38" class="node" pointer-events="visible" data-name="37">

<path fill="#c8e4f8" stroke="black" d="M1962.51,-459.2C1962.51,-459.2 1842.97,-459.2 1842.97,-459.2 1836.97,-459.2 1830.97,-453.2 1830.97,-447.2 1830.97,-447.2 1830.97,-379.2 1830.97,-379.2 1830.97,-373.2 1836.97,-367.2 1842.97,-367.2 1842.97,-367.2 1962.51,-367.2 1962.51,-367.2 1968.51,-367.2 1974.51,-373.2 1974.51,-379.2 1974.51,-379.2 1974.51,-447.2 1974.51,-447.2 1974.51,-453.2 1968.51,-459.2 1962.51,-459.2"/>
<text text-anchor="middle" x="1902.74" y="-442.6" font-family="Helvetica,sans-Serif" font-size="14.00">used_chip &lt;= 0.5</text>
<text text-anchor="middle" x="1902.74" y="-425.8" font-family="Helvetica,sans-Serif" font-size="14.00">gini = 0.487</text>
<text text-anchor="middle" x="1902.74" y="-409" font-family="Helvetica,sans-Serif" font-size="14.00">samples = 4248</text>
<text text-anchor="middle" x="1902.74" y="-392.2" font-family="Helvetica,sans-Serif" font-size="14.00">value = [1781, 2467]</text>
<text text-anchor="middle" x="1902.74" y="-375.4" font-family="Helvetica,sans-Serif" font-size="14.00" style="">class = not fraud</text>
</g>
<!-- 36&#45;&gt;37 -->
<g id="edge37" class="edge" data-name="36-&gt;37">

<path fill="none" stroke="black" d="M2048.3,-494.84C2029.63,-484.55 2009.75,-473.58 1984.62,-459.68"/>
<polygon fill="black" stroke="black" points="1986.49,-456.72 1976.05,-454.94 1983.1,-462.84 1986.49,-456.72"/>
</g>
<!-- 46 -->
<g id="node47" class="node" pointer-events="visible" data-name="46">

<path fill="#e5833c" stroke="black" d="M2256.97,-459.2C2256.97,-459.2 2004.52,-459.2 2004.52,-459.2 1998.52,-459.2 1992.52,-453.2 1992.52,-447.2 1992.52,-447.2 1992.52,-379.2 1992.52,-379.2 1992.52,-373.2 1998.52,-367.2 2004.52,-367.2 2004.52,-367.2 2256.97,-367.2 2256.97,-367.2 2262.97,-367.2 2268.97,-373.2 2268.97,-379.2 2268.97,-379.2 2268.97,-447.2 2268.97,-447.2 2268.97,-453.2 2262.97,-459.2 2256.97,-459.2"/>
<text text-anchor="middle" x="2130.74" y="-442.6" font-family="Helvetica,sans-Serif" font-size="14.00">distance_from_last_transaction &lt;= 50.038</text>
<text text-anchor="middle" x="2130.74" y="-425.8" font-family="Helvetica,sans-Serif" font-size="14.00">gini = 0.026</text>
<text text-anchor="middle" x="2130.74" y="-409" font-family="Helvetica,sans-Serif" font-size="14.00">samples = 30167</text>
<text text-anchor="middle" x="2130.74" y="-392.2" font-family="Helvetica,sans-Serif" font-size="14.00">value = [29763, 404]</text>
<text text-anchor="middle" x="2130.74" y="-375.4" font-family="Helvetica,sans-Serif" font-size="14.00" style="">class = fraud</text>
</g>
<!-- 36&#45;&gt;46 -->
<g id="edge46" class="edge" data-name="36-&gt;46">

<path fill="none" stroke="black" d="M2130.74,-494.71C2130.74,-487.04 2130.74,-478.99 2130.74,-471.07"/>
<polygon fill="black" stroke="black" points="2134.24,-471.14 2130.74,-461.14 2127.24,-471.14 2134.24,-471.14"/>
</g>
<!-- 38 -->
<g id="node39" class="node" pointer-events="visible" data-name="38">

<path fill="#50a8e8" stroke="black" d="M1742.73,-331.2C1742.73,-331.2 1630.76,-331.2 1630.76,-331.2 1624.76,-331.2 1618.76,-325.2 1618.76,-319.2 1618.76,-319.2 1618.76,-251.2 1618.76,-251.2 1618.76,-245.2 1624.76,-239.2 1630.76,-239.2 1630.76,-239.2 1742.73,-239.2 1742.73,-239.2 1748.73,-239.2 1754.73,-245.2 1754.73,-251.2 1754.73,-251.2 1754.73,-319.2 1754.73,-319.2 1754.73,-325.2 1748.73,-331.2 1742.73,-331.2"/>
<text text-anchor="middle" x="1686.74" y="-314.6" font-family="Helvetica,sans-Serif" font-size="14.00">used_pin &lt;= 0.5</text>
<text text-anchor="middle" x="1686.74" y="-297.8" font-family="Helvetica,sans-Serif" font-size="14.00">gini = 0.184</text>
<text text-anchor="middle" x="1686.74" y="-281" font-family="Helvetica,sans-Serif" font-size="14.00">samples = 2731</text>
<text text-anchor="middle" x="1686.74" y="-264.2" font-family="Helvetica,sans-Serif" font-size="14.00">value = [280, 2451]</text>
<text text-anchor="middle" x="1686.74" y="-247.4" font-family="Helvetica,sans-Serif" font-size="14.00" style="">class = not fraud</text>
</g>
<!-- 37&#45;&gt;38 -->
<g id="edge38" class="edge" data-name="37-&gt;38">

<path fill="none" stroke="black" d="M1830.59,-370.18C1811.43,-359.01 1790.6,-346.87 1764.88,-331.86"/>
<polygon fill="black" stroke="black" points="1766.88,-328.98 1756.48,-326.96 1763.35,-335.02 1766.88,-328.98"/>
</g>
<!-- 41 -->
<g id="node42" class="node" pointer-events="visible" data-name="41">

<path fill="#e5823b" stroke="black" d="M2036.97,-331.2C2036.97,-331.2 1784.52,-331.2 1784.52,-331.2 1778.52,-331.2 1772.52,-325.2 1772.52,-319.2 1772.52,-319.2 1772.52,-251.2 1772.52,-251.2 1772.52,-245.2 1778.52,-239.2 1784.52,-239.2 1784.52,-239.2 2036.97,-239.2 2036.97,-239.2 2042.97,-239.2 2048.97,-245.2 2048.97,-251.2 2048.97,-251.2 2048.97,-319.2 2048.97,-319.2 2048.97,-325.2 2042.97,-331.2 2036.97,-331.2"/>
<text text-anchor="middle" x="1910.74" y="-314.6" font-family="Helvetica,sans-Serif" font-size="14.00">distance_from_last_transaction &lt;= 50.469</text>
<text text-anchor="middle" x="1910.74" y="-297.8" font-family="Helvetica,sans-Serif" font-size="14.00">gini = 0.021</text>
<text text-anchor="middle" x="1910.74" y="-281" font-family="Helvetica,sans-Serif" font-size="14.00">samples = 1517</text>
<text text-anchor="middle" x="1910.74" y="-264.2" font-family="Helvetica,sans-Serif" font-size="14.00">value = [1501, 16]</text>
<text text-anchor="middle" x="1910.74" y="-247.4" font-family="Helvetica,sans-Serif" font-size="14.00" style="">class = fraud</text>
</g>
<!-- 37&#45;&gt;41 -->
<g id="edge41" class="edge" data-name="37-&gt;41">

<path fill="none" stroke="black" d="M1905.63,-366.71C1906.12,-359.04 1906.63,-350.99 1907.13,-343.07"/>
<polygon fill="black" stroke="black" points="1910.62,-343.33 1907.76,-333.13 1903.64,-342.89 1910.62,-343.33"/>
</g>
<!-- 39 -->
<g id="node40" class="node" pointer-events="visible" data-name="39">

<path fill="#399de5" stroke="black" d="M1690.66,-194.9C1690.66,-194.9 1594.83,-194.9 1594.83,-194.9 1588.83,-194.9 1582.83,-188.9 1582.83,-182.9 1582.83,-182.9 1582.83,-131.5 1582.83,-131.5 1582.83,-125.5 1588.83,-119.5 1594.83,-119.5 1594.83,-119.5 1690.66,-119.5 1690.66,-119.5 1696.66,-119.5 1702.66,-125.5 1702.66,-131.5 1702.66,-131.5 1702.66,-182.9 1702.66,-182.9 1702.66,-188.9 1696.66,-194.9 1690.66,-194.9"/>
<text text-anchor="middle" x="1642.74" y="-178.2" font-family="Helvetica,sans-Serif" font-size="14.00">gini = 0.0</text>
<text text-anchor="middle" x="1642.74" y="-161.4" font-family="Helvetica,sans-Serif" font-size="14.00">samples = 2451</text>
<text text-anchor="middle" x="1642.74" y="-144.6" font-family="Helvetica,sans-Serif" font-size="14.00">value = [0, 2451]</text>
<text text-anchor="middle" x="1642.74" y="-127.8" font-family="Helvetica,sans-Serif" font-size="14.00" style="">class = not fraud</text>
</g>
<!-- 38&#45;&gt;39 -->
<g id="edge39" class="edge" data-name="38-&gt;39">

<path fill="none" stroke="black" d="M1670.86,-238.71C1667.17,-228.14 1663.23,-216.86 1659.5,-206.19"/>
<polygon fill="black" stroke="black" points="1662.81,-205.06 1656.21,-196.77 1656.21,-207.37 1662.81,-205.06"/>
</g>
<!-- 40 -->
<g id="node41" class="node" pointer-events="visible" data-name="40">

<path fill="#e58139" stroke="black" d="M1820.87,-194.9C1820.87,-194.9 1732.62,-194.9 1732.62,-194.9 1726.62,-194.9 1720.62,-188.9 1720.62,-182.9 1720.62,-182.9 1720.62,-131.5 1720.62,-131.5 1720.62,-125.5 1726.62,-119.5 1732.62,-119.5 1732.62,-119.5 1820.87,-119.5 1820.87,-119.5 1826.87,-119.5 1832.87,-125.5 1832.87,-131.5 1832.87,-131.5 1832.87,-182.9 1832.87,-182.9 1832.87,-188.9 1826.87,-194.9 1820.87,-194.9"/>
<text text-anchor="middle" x="1776.74" y="-178.2" font-family="Helvetica,sans-Serif" font-size="14.00">gini = 0.0</text>
<text text-anchor="middle" x="1776.74" y="-161.4" font-family="Helvetica,sans-Serif" font-size="14.00">samples = 280</text>
<text text-anchor="middle" x="1776.74" y="-144.6" font-family="Helvetica,sans-Serif" font-size="14.00">value = [280, 0]</text>
<text text-anchor="middle" x="1776.74" y="-127.8" font-family="Helvetica,sans-Serif" font-size="14.00" style="">class = fraud</text>
</g>
<!-- 38&#45;&gt;40 -->
<g id="edge40" class="edge" data-name="38-&gt;40">

<path fill="none" stroke="black" d="M1719.23,-238.71C1727.18,-227.59 1735.69,-215.67 1743.66,-204.51"/>
<polygon fill="black" stroke="black" points="1746.37,-206.75 1749.33,-196.58 1740.67,-202.68 1746.37,-206.75"/>
</g>
<!-- 42 -->
<g id="node43" class="node" pointer-events="visible" data-name="42">

<path fill="#e58139" stroke="black" d="M1958.66,-194.9C1958.66,-194.9 1862.83,-194.9 1862.83,-194.9 1856.83,-194.9 1850.83,-188.9 1850.83,-182.9 1850.83,-182.9 1850.83,-131.5 1850.83,-131.5 1850.83,-125.5 1856.83,-119.5 1862.83,-119.5 1862.83,-119.5 1958.66,-119.5 1958.66,-119.5 1964.66,-119.5 1970.66,-125.5 1970.66,-131.5 1970.66,-131.5 1970.66,-182.9 1970.66,-182.9 1970.66,-188.9 1964.66,-194.9 1958.66,-194.9"/>
<text text-anchor="middle" x="1910.74" y="-178.2" font-family="Helvetica,sans-Serif" font-size="14.00">gini = 0.0</text>
<text text-anchor="middle" x="1910.74" y="-161.4" font-family="Helvetica,sans-Serif" font-size="14.00">samples = 1498</text>
<text text-anchor="middle" x="1910.74" y="-144.6" font-family="Helvetica,sans-Serif" font-size="14.00">value = [1498, 0]</text>
<text text-anchor="middle" x="1910.74" y="-127.8" font-family="Helvetica,sans-Serif" font-size="14.00" style="">class = fraud</text>
</g>
<!-- 41&#45;&gt;42 -->
<g id="edge42" class="edge" data-name="41-&gt;42">

<path fill="none" stroke="black" d="M1910.74,-238.71C1910.74,-228.25 1910.74,-217.1 1910.74,-206.53"/>
<polygon fill="black" stroke="black" points="1914.24,-206.86 1910.74,-196.86 1907.24,-206.86 1914.24,-206.86"/>
</g>
<!-- 43 -->
<g id="node44" class="node" pointer-events="visible" data-name="43">

<path fill="#5eafea" stroke="black" d="M2096.36,-203.2C2096.36,-203.2 2001.13,-203.2 2001.13,-203.2 1995.13,-203.2 1989.13,-197.2 1989.13,-191.2 1989.13,-191.2 1989.13,-123.2 1989.13,-123.2 1989.13,-117.2 1995.13,-111.2 2001.13,-111.2 2001.13,-111.2 2096.36,-111.2 2096.36,-111.2 2102.36,-111.2 2108.36,-117.2 2108.36,-123.2 2108.36,-123.2 2108.36,-191.2 2108.36,-191.2 2108.36,-197.2 2102.36,-203.2 2096.36,-203.2"/>
<text text-anchor="middle" x="2048.74" y="-186.6" font-family="Helvetica,sans-Serif" font-size="14.00">used_pin &lt;= 0.5</text>
<text text-anchor="middle" x="2048.74" y="-169.8" font-family="Helvetica,sans-Serif" font-size="14.00">gini = 0.266</text>
<text text-anchor="middle" x="2048.74" y="-153" font-family="Helvetica,sans-Serif" font-size="14.00">samples = 19</text>
<text text-anchor="middle" x="2048.74" y="-136.2" font-family="Helvetica,sans-Serif" font-size="14.00">value = [3, 16]</text>
<text text-anchor="middle" x="2048.74" y="-119.4" font-family="Helvetica,sans-Serif" font-size="14.00" style="">class = not fraud</text>
</g>
<!-- 41&#45;&gt;43 -->
<g id="edge43" class="edge" data-name="41-&gt;43">

<path fill="none" stroke="black" d="M1960.56,-238.71C1970.33,-229.79 1980.66,-220.36 1990.68,-211.22"/>
<polygon fill="black" stroke="black" points="1992.85,-213.97 1997.88,-204.64 1988.13,-208.8 1992.85,-213.97"/>
</g>
<!-- 44 -->
<g id="node45" class="node" pointer-events="visible" data-name="44">

<path fill="#399de5" stroke="black" d="M2033.36,-75.3C2033.36,-75.3 1938.13,-75.3 1938.13,-75.3 1932.13,-75.3 1926.13,-69.3 1926.13,-63.3 1926.13,-63.3 1926.13,-11.9 1926.13,-11.9 1926.13,-5.9 1932.13,0.1 1938.13,0.1 1938.13,0.1 2033.36,0.1 2033.36,0.1 2039.36,0.1 2045.36,-5.9 2045.36,-11.9 2045.36,-11.9 2045.36,-63.3 2045.36,-63.3 2045.36,-69.3 2039.36,-75.3 2033.36,-75.3"/>
<text text-anchor="middle" x="1985.74" y="-58.6" font-family="Helvetica,sans-Serif" font-size="14.00">gini = 0.0</text>
<text text-anchor="middle" x="1985.74" y="-41.8" font-family="Helvetica,sans-Serif" font-size="14.00">samples = 16</text>
<text text-anchor="middle" x="1985.74" y="-25" font-family="Helvetica,sans-Serif" font-size="14.00">value = [0, 16]</text>
<text text-anchor="middle" x="1985.74" y="-8.2" font-family="Helvetica,sans-Serif" font-size="14.00" style="">class = not fraud</text>
</g>
<!-- 43&#45;&gt;44 -->
<g id="edge44" class="edge" data-name="43-&gt;44">

<path fill="none" stroke="black" d="M2024.39,-110.73C2019.95,-102.46 2015.32,-93.82 2010.87,-85.51"/>
<polygon fill="black" stroke="black" points="2014.08,-84.08 2006.27,-76.91 2007.91,-87.38 2014.08,-84.08"/>
</g>
<!-- 45 -->
<g id="node46" class="node" pointer-events="visible" data-name="45">

<path fill="#e58139" stroke="black" d="M2147.8,-75.3C2147.8,-75.3 2075.69,-75.3 2075.69,-75.3 2069.69,-75.3 2063.69,-69.3 2063.69,-63.3 2063.69,-63.3 2063.69,-11.9 2063.69,-11.9 2063.69,-5.9 2069.69,0.1 2075.69,0.1 2075.69,0.1 2147.8,0.1 2147.8,0.1 2153.8,0.1 2159.8,-5.9 2159.8,-11.9 2159.8,-11.9 2159.8,-63.3 2159.8,-63.3 2159.8,-69.3 2153.8,-75.3 2147.8,-75.3"/>
<text text-anchor="middle" x="2111.74" y="-58.6" font-family="Helvetica,sans-Serif" font-size="14.00">gini = 0.0</text>
<text text-anchor="middle" x="2111.74" y="-41.8" font-family="Helvetica,sans-Serif" font-size="14.00">samples = 3</text>
<text text-anchor="middle" x="2111.74" y="-25" font-family="Helvetica,sans-Serif" font-size="14.00">value = [3, 0]</text>
<text text-anchor="middle" x="2111.74" y="-8.2" font-family="Helvetica,sans-Serif" font-size="14.00" style="">class = fraud</text>
</g>
<!-- 43&#45;&gt;45 -->
<g id="edge45" class="edge" data-name="43-&gt;45">

<path fill="none" stroke="black" d="M2073.1,-110.73C2077.53,-102.46 2082.16,-93.82 2086.61,-85.51"/>
<polygon fill="black" stroke="black" points="2089.58,-87.38 2091.22,-76.91 2083.41,-84.08 2089.58,-87.38"/>
</g>
<!-- 47 -->
<g id="node48" class="node" pointer-events="visible" data-name="47">

<path fill="#e58139" stroke="black" d="M2182.44,-322.9C2182.44,-322.9 2079.04,-322.9 2079.04,-322.9 2073.04,-322.9 2067.04,-316.9 2067.04,-310.9 2067.04,-310.9 2067.04,-259.5 2067.04,-259.5 2067.04,-253.5 2073.04,-247.5 2079.04,-247.5 2079.04,-247.5 2182.44,-247.5 2182.44,-247.5 2188.44,-247.5 2194.44,-253.5 2194.44,-259.5 2194.44,-259.5 2194.44,-310.9 2194.44,-310.9 2194.44,-316.9 2188.44,-322.9 2182.44,-322.9"/>
<text text-anchor="middle" x="2130.74" y="-306.2" font-family="Helvetica,sans-Serif" font-size="14.00">gini = 0.0</text>
<text text-anchor="middle" x="2130.74" y="-289.4" font-family="Helvetica,sans-Serif" font-size="14.00">samples = 29725</text>
<text text-anchor="middle" x="2130.74" y="-272.6" font-family="Helvetica,sans-Serif" font-size="14.00">value = [29725, 0]</text>
<text text-anchor="middle" x="2130.74" y="-255.8" font-family="Helvetica,sans-Serif" font-size="14.00" style="">class = fraud</text>
</g>
<!-- 46&#45;&gt;47 -->
<g id="edge47" class="edge" data-name="46-&gt;47">

<path fill="none" stroke="black" d="M2130.74,-366.71C2130.74,-356.25 2130.74,-345.1 2130.74,-334.53"/>
<polygon fill="black" stroke="black" points="2134.24,-334.86 2130.74,-324.86 2127.24,-334.86 2134.24,-334.86"/>
</g>
<!-- 48 -->
<g id="node49" class="node" pointer-events="visible" data-name="48">

<path fill="#4ca6e7" stroke="black" d="M2320.66,-331.2C2320.66,-331.2 2224.83,-331.2 2224.83,-331.2 2218.83,-331.2 2212.83,-325.2 2212.83,-319.2 2212.83,-319.2 2212.83,-251.2 2212.83,-251.2 2212.83,-245.2 2218.83,-239.2 2224.83,-239.2 2224.83,-239.2 2320.66,-239.2 2320.66,-239.2 2326.66,-239.2 2332.66,-245.2 2332.66,-251.2 2332.66,-251.2 2332.66,-319.2 2332.66,-319.2 2332.66,-325.2 2326.66,-331.2 2320.66,-331.2"/>
<text text-anchor="middle" x="2272.74" y="-314.6" font-family="Helvetica,sans-Serif" font-size="14.00">used_pin &lt;= 0.5</text>
<text text-anchor="middle" x="2272.74" y="-297.8" font-family="Helvetica,sans-Serif" font-size="14.00">gini = 0.157</text>
<text text-anchor="middle" x="2272.74" y="-281" font-family="Helvetica,sans-Serif" font-size="14.00">samples = 442</text>
<text text-anchor="middle" x="2272.74" y="-264.2" font-family="Helvetica,sans-Serif" font-size="14.00">value = [38, 404]</text>
<text text-anchor="middle" x="2272.74" y="-247.4" font-family="Helvetica,sans-Serif" font-size="14.00" style="">class = not fraud</text>
</g>
<!-- 46&#45;&gt;48 -->
<g id="edge48" class="edge" data-name="46-&gt;48">

<path fill="none" stroke="black" d="M2182.01,-366.71C2192.06,-357.79 2202.69,-348.36 2212.99,-339.22"/>
<polygon fill="black" stroke="black" points="2215.26,-341.88 2220.42,-332.63 2210.62,-336.65 2215.26,-341.88"/>
</g>
<!-- 49 -->
<g id="node50" class="node" pointer-events="visible" data-name="49">

<path fill="#399de5" stroke="black" d="M2277.36,-194.9C2277.36,-194.9 2182.13,-194.9 2182.13,-194.9 2176.13,-194.9 2170.13,-188.9 2170.13,-182.9 2170.13,-182.9 2170.13,-131.5 2170.13,-131.5 2170.13,-125.5 2176.13,-119.5 2182.13,-119.5 2182.13,-119.5 2277.36,-119.5 2277.36,-119.5 2283.36,-119.5 2289.36,-125.5 2289.36,-131.5 2289.36,-131.5 2289.36,-182.9 2289.36,-182.9 2289.36,-188.9 2283.36,-194.9 2277.36,-194.9"/>
<text text-anchor="middle" x="2229.74" y="-178.2" font-family="Helvetica,sans-Serif" font-size="14.00">gini = 0.0</text>
<text text-anchor="middle" x="2229.74" y="-161.4" font-family="Helvetica,sans-Serif" font-size="14.00">samples = 404</text>
<text text-anchor="middle" x="2229.74" y="-144.6" font-family="Helvetica,sans-Serif" font-size="14.00">value = [0, 404]</text>
<text text-anchor="middle" x="2229.74" y="-127.8" font-family="Helvetica,sans-Serif" font-size="14.00" style="">class = not fraud</text>
</g>
<!-- 48&#45;&gt;49 -->
<g id="edge49" class="edge" data-name="48-&gt;49">

<path fill="none" stroke="black" d="M2257.22,-238.71C2253.61,-228.14 2249.76,-216.86 2246.12,-206.19"/>
<polygon fill="black" stroke="black" points="2249.45,-205.11 2242.91,-196.78 2242.83,-207.37 2249.45,-205.11"/>
</g>
<!-- 50 -->
<g id="node51" class="node" pointer-events="visible" data-name="50">

<path fill="#e58139" stroke="black" d="M2400.08,-194.9C2400.08,-194.9 2319.4,-194.9 2319.4,-194.9 2313.4,-194.9 2307.4,-188.9 2307.4,-182.9 2307.4,-182.9 2307.4,-131.5 2307.4,-131.5 2307.4,-125.5 2313.4,-119.5 2319.4,-119.5 2319.4,-119.5 2400.08,-119.5 2400.08,-119.5 2406.08,-119.5 2412.08,-125.5 2412.08,-131.5 2412.08,-131.5 2412.08,-182.9 2412.08,-182.9 2412.08,-188.9 2406.08,-194.9 2400.08,-194.9"/>
<text text-anchor="middle" x="2359.74" y="-178.2" font-family="Helvetica,sans-Serif" font-size="14.00">gini = 0.0</text>
<text text-anchor="middle" x="2359.74" y="-161.4" font-family="Helvetica,sans-Serif" font-size="14.00">samples = 38</text>
<text text-anchor="middle" x="2359.74" y="-144.6" font-family="Helvetica,sans-Serif" font-size="14.00">value = [38, 0]</text>
<text text-anchor="middle" x="2359.74" y="-127.8" font-family="Helvetica,sans-Serif" font-size="14.00" style="">class = fraud</text>
</g>
<!-- 48&#45;&gt;50 -->
<g id="edge50" class="edge" data-name="48-&gt;50">

<path fill="none" stroke="black" d="M2304.15,-238.71C2311.83,-227.59 2320.06,-215.67 2327.77,-204.51"/>
<polygon fill="black" stroke="black" points="2330.43,-206.81 2333.24,-196.59 2324.67,-202.83 2330.43,-206.81"/>
</g>
<!-- 52 -->
<g id="node53" class="node" pointer-events="visible" data-name="52">

<path fill="#399de5" stroke="black" d="M2394.66,-450.9C2394.66,-450.9 2298.83,-450.9 2298.83,-450.9 2292.83,-450.9 2286.83,-444.9 2286.83,-438.9 2286.83,-438.9 2286.83,-387.5 2286.83,-387.5 2286.83,-381.5 2292.83,-375.5 2298.83,-375.5 2298.83,-375.5 2394.66,-375.5 2394.66,-375.5 2400.66,-375.5 2406.66,-381.5 2406.66,-387.5 2406.66,-387.5 2406.66,-438.9 2406.66,-438.9 2406.66,-444.9 2400.66,-450.9 2394.66,-450.9"/>
<text text-anchor="middle" x="2346.74" y="-434.2" font-family="Helvetica,sans-Serif" font-size="14.00">gini = 0.0</text>
<text text-anchor="middle" x="2346.74" y="-417.4" font-family="Helvetica,sans-Serif" font-size="14.00">samples = 1604</text>
<text text-anchor="middle" x="2346.74" y="-400.6" font-family="Helvetica,sans-Serif" font-size="14.00">value = [0, 1604]</text>
<text text-anchor="middle" x="2346.74" y="-383.8" font-family="Helvetica,sans-Serif" font-size="14.00" style="">class = not fraud</text>
</g>
<!-- 51&#45;&gt;52 -->
<g id="edge52" class="edge" data-name="51-&gt;52">

<path fill="none" stroke="black" d="M2346.74,-494.71C2346.74,-484.25 2346.74,-473.1 2346.74,-462.53"/>
<polygon fill="black" stroke="black" points="2350.24,-462.86 2346.74,-452.86 2343.24,-462.86 2350.24,-462.86"/>
</g>
<!-- 53 -->
<g id="node54" class="node" pointer-events="visible" data-name="53">

<path fill="#e5823a" stroke="black" d="M2688.97,-459.2C2688.97,-459.2 2436.52,-459.2 2436.52,-459.2 2430.52,-459.2 2424.52,-453.2 2424.52,-447.2 2424.52,-447.2 2424.52,-379.2 2424.52,-379.2 2424.52,-373.2 2430.52,-367.2 2436.52,-367.2 2436.52,-367.2 2688.97,-367.2 2688.97,-367.2 2694.97,-367.2 2700.97,-373.2 2700.97,-379.2 2700.97,-379.2 2700.97,-447.2 2700.97,-447.2 2700.97,-453.2 2694.97,-459.2 2688.97,-459.2"/>
<text text-anchor="middle" x="2562.74" y="-442.6" font-family="Helvetica,sans-Serif" font-size="14.00">distance_from_last_transaction &lt;= 49.579</text>
<text text-anchor="middle" x="2562.74" y="-425.8" font-family="Helvetica,sans-Serif" font-size="14.00">gini = 0.012</text>
<text text-anchor="middle" x="2562.74" y="-409" font-family="Helvetica,sans-Serif" font-size="14.00">samples = 171</text>
<text text-anchor="middle" x="2562.74" y="-392.2" font-family="Helvetica,sans-Serif" font-size="14.00">value = [170, 1]</text>
<text text-anchor="middle" x="2562.74" y="-375.4" font-family="Helvetica,sans-Serif" font-size="14.00" style="">class = fraud</text>
</g>
<!-- 51&#45;&gt;53 -->
<g id="edge53" class="edge" data-name="51-&gt;53">

<path fill="none" stroke="black" d="M2415.09,-500.33C2434.21,-489.18 2455.25,-476.9 2475.31,-465.2"/>
<polygon fill="black" stroke="black" points="2476.89,-468.34 2483.76,-460.27 2473.36,-462.29 2476.89,-468.34"/>
</g>
<!-- 54 -->
<g id="node55" class="node" pointer-events="visible" data-name="54">

<path fill="#e58139" stroke="black" d="M2501.87,-322.9C2501.87,-322.9 2413.62,-322.9 2413.62,-322.9 2407.62,-322.9 2401.62,-316.9 2401.62,-310.9 2401.62,-310.9 2401.62,-259.5 2401.62,-259.5 2401.62,-253.5 2407.62,-247.5 2413.62,-247.5 2413.62,-247.5 2501.87,-247.5 2501.87,-247.5 2507.87,-247.5 2513.87,-253.5 2513.87,-259.5 2513.87,-259.5 2513.87,-310.9 2513.87,-310.9 2513.87,-316.9 2507.87,-322.9 2501.87,-322.9"/>
<text text-anchor="middle" x="2457.74" y="-306.2" font-family="Helvetica,sans-Serif" font-size="14.00">gini = 0.0</text>
<text text-anchor="middle" x="2457.74" y="-289.4" font-family="Helvetica,sans-Serif" font-size="14.00">samples = 170</text>
<text text-anchor="middle" x="2457.74" y="-272.6" font-family="Helvetica,sans-Serif" font-size="14.00">value = [170, 0]</text>
<text text-anchor="middle" x="2457.74" y="-255.8" font-family="Helvetica,sans-Serif" font-size="14.00" style="">class = fraud</text>
</g>
<!-- 53&#45;&gt;54 -->
<g id="edge54" class="edge" data-name="53-&gt;54">

<path fill="none" stroke="black" d="M2524.84,-366.71C2515.47,-355.48 2505.44,-343.43 2496.05,-332.17"/>
<polygon fill="black" stroke="black" points="2498.76,-329.95 2489.66,-324.51 2493.38,-334.43 2498.76,-329.95"/>
</g>
<!-- 55 -->
<g id="node56" class="node" pointer-events="visible" data-name="55">

<path fill="#399de5" stroke="black" d="M2639.36,-322.9C2639.36,-322.9 2544.13,-322.9 2544.13,-322.9 2538.13,-322.9 2532.13,-316.9 2532.13,-310.9 2532.13,-310.9 2532.13,-259.5 2532.13,-259.5 2532.13,-253.5 2538.13,-247.5 2544.13,-247.5 2544.13,-247.5 2639.36,-247.5 2639.36,-247.5 2645.36,-247.5 2651.36,-253.5 2651.36,-259.5 2651.36,-259.5 2651.36,-310.9 2651.36,-310.9 2651.36,-316.9 2645.36,-322.9 2639.36,-322.9"/>
<text text-anchor="middle" x="2591.74" y="-306.2" font-family="Helvetica,sans-Serif" font-size="14.00">gini = 0.0</text>
<text text-anchor="middle" x="2591.74" y="-289.4" font-family="Helvetica,sans-Serif" font-size="14.00">samples = 1</text>
<text text-anchor="middle" x="2591.74" y="-272.6" font-family="Helvetica,sans-Serif" font-size="14.00">value = [0, 1]</text>
<text text-anchor="middle" x="2591.74" y="-255.8" font-family="Helvetica,sans-Serif" font-size="14.00" style="">class = not fraud</text>
</g>
<!-- 53&#45;&gt;55 -->
<g id="edge55" class="edge" data-name="53-&gt;55">

<path fill="none" stroke="black" d="M2573.21,-366.71C2575.62,-356.25 2578.19,-345.1 2580.62,-334.53"/>
<polygon fill="black" stroke="black" points="2584.02,-335.35 2582.85,-324.82 2577.2,-333.78 2584.02,-335.35"/>
</g>
<!-- 57 -->
<g id="node58" class="node" pointer-events="visible" data-name="57">

<path fill="#399de5" stroke="black" d="M2632.44,-578.9C2632.44,-578.9 2529.04,-578.9 2529.04,-578.9 2523.04,-578.9 2517.04,-572.9 2517.04,-566.9 2517.04,-566.9 2517.04,-515.5 2517.04,-515.5 2517.04,-509.5 2523.04,-503.5 2529.04,-503.5 2529.04,-503.5 2632.44,-503.5 2632.44,-503.5 2638.44,-503.5 2644.44,-509.5 2644.44,-515.5 2644.44,-515.5 2644.44,-566.9 2644.44,-566.9 2644.44,-572.9 2638.44,-578.9 2632.44,-578.9"/>
<text text-anchor="middle" x="2580.74" y="-562.2" font-family="Helvetica,sans-Serif" font-size="14.00">gini = 0.0</text>
<text text-anchor="middle" x="2580.74" y="-545.4" font-family="Helvetica,sans-Serif" font-size="14.00">samples = 60203</text>
<text text-anchor="middle" x="2580.74" y="-528.6" font-family="Helvetica,sans-Serif" font-size="14.00">value = [0, 60203]</text>
<text text-anchor="middle" x="2580.74" y="-511.8" font-family="Helvetica,sans-Serif" font-size="14.00" style="">class = not fraud</text>
</g>
<!-- 56&#45;&gt;57 -->
<g id="edge57" class="edge" data-name="56-&gt;57">

<path fill="none" stroke="black" d="M2580.74,-622.71C2580.74,-612.25 2580.74,-601.1 2580.74,-590.53"/>
<polygon fill="black" stroke="black" points="2584.24,-590.86 2580.74,-580.86 2577.24,-590.86 2584.24,-590.86"/>
</g>
<!-- 58 -->
<g id="node59" class="node" pointer-events="visible" data-name="58">

<path fill="#e68641" stroke="black" d="M2956.72,-587.2C2956.72,-587.2 2758.77,-587.2 2758.77,-587.2 2752.77,-587.2 2746.77,-581.2 2746.77,-575.2 2746.77,-575.2 2746.77,-507.2 2746.77,-507.2 2746.77,-501.2 2752.77,-495.2 2758.77,-495.2 2758.77,-495.2 2956.72,-495.2 2956.72,-495.2 2962.72,-495.2 2968.72,-501.2 2968.72,-507.2 2968.72,-507.2 2968.72,-575.2 2968.72,-575.2 2968.72,-581.2 2962.72,-587.2 2956.72,-587.2"/>
<text text-anchor="middle" x="2857.74" y="-570.6" font-family="Helvetica,sans-Serif" font-size="14.00">distance_from_home &lt;= 100.346</text>
<text text-anchor="middle" x="2857.74" y="-553.8" font-family="Helvetica,sans-Serif" font-size="14.00">gini = 0.077</text>
<text text-anchor="middle" x="2857.74" y="-537" font-family="Helvetica,sans-Serif" font-size="14.00">samples = 6765</text>
<text text-anchor="middle" x="2857.74" y="-520.2" font-family="Helvetica,sans-Serif" font-size="14.00">value = [6493, 272]</text>
<text text-anchor="middle" x="2857.74" y="-503.4" font-family="Helvetica,sans-Serif" font-size="14.00" style="">class = fraud</text>
</g>
<!-- 56&#45;&gt;58 -->
<g id="edge58" class="edge" data-name="56-&gt;58">

<path fill="none" stroke="black" d="M2656.43,-633.77C2684.57,-620.97 2717.09,-606.18 2747.68,-592.26"/>
<polygon fill="black" stroke="black" points="2748.94,-595.54 2756.59,-588.21 2746.04,-589.16 2748.94,-595.54"/>
</g>
<!-- 59 -->
<g id="node60" class="node" pointer-events="visible" data-name="59">

<path fill="#e5833b" stroke="black" d="M2983.97,-459.2C2983.97,-459.2 2731.52,-459.2 2731.52,-459.2 2725.52,-459.2 2719.52,-453.2 2719.52,-447.2 2719.52,-447.2 2719.52,-379.2 2719.52,-379.2 2719.52,-373.2 2725.52,-367.2 2731.52,-367.2 2731.52,-367.2 2983.97,-367.2 2983.97,-367.2 2989.97,-367.2 2995.97,-373.2 2995.97,-379.2 2995.97,-379.2 2995.97,-447.2 2995.97,-447.2 2995.97,-453.2 2989.97,-459.2 2983.97,-459.2"/>
<text text-anchor="middle" x="2857.74" y="-442.6" font-family="Helvetica,sans-Serif" font-size="14.00">distance_from_last_transaction &lt;= 50.126</text>
<text text-anchor="middle" x="2857.74" y="-425.8" font-family="Helvetica,sans-Serif" font-size="14.00">gini = 0.024</text>
<text text-anchor="middle" x="2857.74" y="-409" font-family="Helvetica,sans-Serif" font-size="14.00">samples = 6450</text>
<text text-anchor="middle" x="2857.74" y="-392.2" font-family="Helvetica,sans-Serif" font-size="14.00">value = [6373, 77]</text>
<text text-anchor="middle" x="2857.74" y="-375.4" font-family="Helvetica,sans-Serif" font-size="14.00" style="">class = fraud</text>
</g>
<!-- 58&#45;&gt;59 -->
<g id="edge59" class="edge" data-name="58-&gt;59">

<path fill="none" stroke="black" d="M2857.74,-494.71C2857.74,-487.04 2857.74,-478.99 2857.74,-471.07"/>
<polygon fill="black" stroke="black" points="2861.24,-471.14 2857.74,-461.14 2854.24,-471.14 2861.24,-471.14"/>
</g>
<!-- 66 -->
<g id="node67" class="node" pointer-events="visible" data-name="66">

<path fill="#b3d9f5" stroke="black" d="M3129.44,-459.2C3129.44,-459.2 3026.04,-459.2 3026.04,-459.2 3020.04,-459.2 3014.04,-453.2 3014.04,-447.2 3014.04,-447.2 3014.04,-379.2 3014.04,-379.2 3014.04,-373.2 3020.04,-367.2 3026.04,-367.2 3026.04,-367.2 3129.44,-367.2 3129.44,-367.2 3135.44,-367.2 3141.44,-373.2 3141.44,-379.2 3141.44,-379.2 3141.44,-447.2 3141.44,-447.2 3141.44,-453.2 3135.44,-459.2 3129.44,-459.2"/>
<text text-anchor="middle" x="3077.74" y="-442.6" font-family="Helvetica,sans-Serif" font-size="14.00">used_chip &lt;= 0.5</text>
<text text-anchor="middle" x="3077.74" y="-425.8" font-family="Helvetica,sans-Serif" font-size="14.00">gini = 0.472</text>
<text text-anchor="middle" x="3077.74" y="-409" font-family="Helvetica,sans-Serif" font-size="14.00">samples = 315</text>
<text text-anchor="middle" x="3077.74" y="-392.2" font-family="Helvetica,sans-Serif" font-size="14.00">value = [120, 195]</text>
<text text-anchor="middle" x="3077.74" y="-375.4" font-family="Helvetica,sans-Serif" font-size="14.00" style="">class = not fraud</text>
</g>
<!-- 58&#45;&gt;66 -->
<g id="edge66" class="edge" data-name="58-&gt;66">

<path fill="none" stroke="black" d="M2941.71,-494.85C2960.08,-484.71 2979.5,-473.81 3004.08,-459.53"/>
<polygon fill="black" stroke="black" points="3005.57,-462.71 3012.45,-454.65 3002.05,-456.66 3005.57,-462.71"/>
</g>
<!-- 60 -->
<g id="node61" class="node" pointer-events="visible" data-name="60">

<path fill="#e58139" stroke="black" d="M2785.66,-322.9C2785.66,-322.9 2689.83,-322.9 2689.83,-322.9 2683.83,-322.9 2677.83,-316.9 2677.83,-310.9 2677.83,-310.9 2677.83,-259.5 2677.83,-259.5 2677.83,-253.5 2683.83,-247.5 2689.83,-247.5 2689.83,-247.5 2785.66,-247.5 2785.66,-247.5 2791.66,-247.5 2797.66,-253.5 2797.66,-259.5 2797.66,-259.5 2797.66,-310.9 2797.66,-310.9 2797.66,-316.9 2791.66,-322.9 2785.66,-322.9"/>
<text text-anchor="middle" x="2737.74" y="-306.2" font-family="Helvetica,sans-Serif" font-size="14.00">gini = 0.0</text>
<text text-anchor="middle" x="2737.74" y="-289.4" font-family="Helvetica,sans-Serif" font-size="14.00">samples = 6347</text>
<text text-anchor="middle" x="2737.74" y="-272.6" font-family="Helvetica,sans-Serif" font-size="14.00">value = [6347, 0]</text>
<text text-anchor="middle" x="2737.74" y="-255.8" font-family="Helvetica,sans-Serif" font-size="14.00" style="">class = fraud</text>
</g>
<!-- 59&#45;&gt;60 -->
<g id="edge60" class="edge" data-name="59-&gt;60">

<path fill="none" stroke="black" d="M2814.42,-366.71C2803.51,-355.25 2791.8,-342.96 2780.89,-331.51"/>
<polygon fill="black" stroke="black" points="2783.59,-329.27 2774.16,-324.44 2778.52,-334.1 2783.59,-329.27"/>
</g>
<!-- 61 -->
<g id="node62" class="node" pointer-events="visible" data-name="61">

<path fill="#7cbeee" stroke="black" d="M2927.66,-331.2C2927.66,-331.2 2827.82,-331.2 2827.82,-331.2 2821.82,-331.2 2815.82,-325.2 2815.82,-319.2 2815.82,-319.2 2815.82,-251.2 2815.82,-251.2 2815.82,-245.2 2821.82,-239.2 2827.82,-239.2 2827.82,-239.2 2927.66,-239.2 2927.66,-239.2 2933.66,-239.2 2939.66,-245.2 2939.66,-251.2 2939.66,-251.2 2939.66,-319.2 2939.66,-319.2 2939.66,-325.2 2933.66,-331.2 2927.66,-331.2"/>
<text text-anchor="middle" x="2877.74" y="-314.6" font-family="Helvetica,sans-Serif" font-size="14.00">used_chip &lt;= 0.5</text>
<text text-anchor="middle" x="2877.74" y="-297.8" font-family="Helvetica,sans-Serif" font-size="14.00">gini = 0.377</text>
<text text-anchor="middle" x="2877.74" y="-281" font-family="Helvetica,sans-Serif" font-size="14.00">samples = 103</text>
<text text-anchor="middle" x="2877.74" y="-264.2" font-family="Helvetica,sans-Serif" font-size="14.00">value = [26, 77]</text>
<text text-anchor="middle" x="2877.74" y="-247.4" font-family="Helvetica,sans-Serif" font-size="14.00" style="">class = not fraud</text>
</g>
<!-- 59&#45;&gt;61 -->
<g id="edge61" class="edge" data-name="59-&gt;61">

<path fill="none" stroke="black" d="M2864.96,-366.71C2866.2,-358.95 2867.49,-350.8 2868.76,-342.8"/>
<polygon fill="black" stroke="black" points="2872.18,-343.54 2870.3,-333.12 2865.27,-342.44 2872.18,-343.54"/>
</g>
<!-- 62 -->
<g id="node63" class="node" pointer-events="visible" data-name="62">

<path fill="#399de5" stroke="black" d="M2887.36,-194.9C2887.36,-194.9 2792.13,-194.9 2792.13,-194.9 2786.13,-194.9 2780.13,-188.9 2780.13,-182.9 2780.13,-182.9 2780.13,-131.5 2780.13,-131.5 2780.13,-125.5 2786.13,-119.5 2792.13,-119.5 2792.13,-119.5 2887.36,-119.5 2887.36,-119.5 2893.36,-119.5 2899.36,-125.5 2899.36,-131.5 2899.36,-131.5 2899.36,-182.9 2899.36,-182.9 2899.36,-188.9 2893.36,-194.9 2887.36,-194.9"/>
<text text-anchor="middle" x="2839.74" y="-178.2" font-family="Helvetica,sans-Serif" font-size="14.00">gini = 0.0</text>
<text text-anchor="middle" x="2839.74" y="-161.4" font-family="Helvetica,sans-Serif" font-size="14.00">samples = 71</text>
<text text-anchor="middle" x="2839.74" y="-144.6" font-family="Helvetica,sans-Serif" font-size="14.00">value = [0, 71]</text>
<text text-anchor="middle" x="2839.74" y="-127.8" font-family="Helvetica,sans-Serif" font-size="14.00" style="">class = not fraud</text>
</g>
<!-- 61&#45;&gt;62 -->
<g id="edge62" class="edge" data-name="61-&gt;62">

<path fill="none" stroke="black" d="M2864.02,-238.71C2860.84,-228.14 2857.43,-216.86 2854.22,-206.19"/>
<polygon fill="black" stroke="black" points="2857.62,-205.36 2851.38,-196.79 2850.92,-207.38 2857.62,-205.36"/>
</g>
<!-- 63 -->
<g id="node64" class="node" pointer-events="visible" data-name="63">

<path fill="#eb9e67" stroke="black" d="M3054.61,-203.2C3054.61,-203.2 2928.87,-203.2 2928.87,-203.2 2922.87,-203.2 2916.87,-197.2 2916.87,-191.2 2916.87,-191.2 2916.87,-123.2 2916.87,-123.2 2916.87,-117.2 2922.87,-111.2 2928.87,-111.2 2928.87,-111.2 3054.61,-111.2 3054.61,-111.2 3060.61,-111.2 3066.61,-117.2 3066.61,-123.2 3066.61,-123.2 3066.61,-191.2 3066.61,-191.2 3066.61,-197.2 3060.61,-203.2 3054.61,-203.2"/>
<text text-anchor="middle" x="2991.74" y="-186.6" font-family="Helvetica,sans-Serif" font-size="14.00">repeat_retailer &lt;= 0.5</text>
<text text-anchor="middle" x="2991.74" y="-169.8" font-family="Helvetica,sans-Serif" font-size="14.00">gini = 0.305</text>
<text text-anchor="middle" x="2991.74" y="-153" font-family="Helvetica,sans-Serif" font-size="14.00">samples = 32</text>
<text text-anchor="middle" x="2991.74" y="-136.2" font-family="Helvetica,sans-Serif" font-size="14.00">value = [26, 6]</text>
<text text-anchor="middle" x="2991.74" y="-119.4" font-family="Helvetica,sans-Serif" font-size="14.00" style="">class = fraud</text>
</g>
<!-- 61&#45;&gt;63 -->
<g id="edge63" class="edge" data-name="61-&gt;63">

<path fill="none" stroke="black" d="M2918.9,-238.71C2926.73,-230.06 2934.99,-220.92 2943.03,-212.04"/>
<polygon fill="black" stroke="black" points="2945.52,-214.51 2949.63,-204.74 2940.33,-209.81 2945.52,-214.51"/>
</g>
<!-- 64 -->
<g id="node65" class="node" pointer-events="visible" data-name="64">

<path fill="#399de5" stroke="black" d="M2974.36,-75.3C2974.36,-75.3 2879.13,-75.3 2879.13,-75.3 2873.13,-75.3 2867.13,-69.3 2867.13,-63.3 2867.13,-63.3 2867.13,-11.9 2867.13,-11.9 2867.13,-5.9 2873.13,0.1 2879.13,0.1 2879.13,0.1 2974.36,0.1 2974.36,0.1 2980.36,0.1 2986.36,-5.9 2986.36,-11.9 2986.36,-11.9 2986.36,-63.3 2986.36,-63.3 2986.36,-69.3 2980.36,-75.3 2974.36,-75.3"/>
<text text-anchor="middle" x="2926.74" y="-58.6" font-family="Helvetica,sans-Serif" font-size="14.00">gini = 0.0</text>
<text text-anchor="middle" x="2926.74" y="-41.8" font-family="Helvetica,sans-Serif" font-size="14.00">samples = 6</text>
<text text-anchor="middle" x="2926.74" y="-25" font-family="Helvetica,sans-Serif" font-size="14.00">value = [0, 6]</text>
<text text-anchor="middle" x="2926.74" y="-8.2" font-family="Helvetica,sans-Serif" font-size="14.00" style="">class = not fraud</text>
</g>
<!-- 63&#45;&gt;64 -->
<g id="edge64" class="edge" data-name="63-&gt;64">

<path fill="none" stroke="black" d="M2966.61,-110.73C2962.04,-102.46 2957.26,-93.82 2952.67,-85.51"/>
<polygon fill="black" stroke="black" points="2955.82,-83.96 2947.91,-76.9 2949.69,-87.35 2955.82,-83.96"/>
</g>
<!-- 65 -->
<g id="node66" class="node" pointer-events="visible" data-name="65">

<path fill="#e58139" stroke="black" d="M3097.08,-75.3C3097.08,-75.3 3016.4,-75.3 3016.4,-75.3 3010.4,-75.3 3004.4,-69.3 3004.4,-63.3 3004.4,-63.3 3004.4,-11.9 3004.4,-11.9 3004.4,-5.9 3010.4,0.1 3016.4,0.1 3016.4,0.1 3097.08,0.1 3097.08,0.1 3103.08,0.1 3109.08,-5.9 3109.08,-11.9 3109.08,-11.9 3109.08,-63.3 3109.08,-63.3 3109.08,-69.3 3103.08,-75.3 3097.08,-75.3"/>
<text text-anchor="middle" x="3056.74" y="-58.6" font-family="Helvetica,sans-Serif" font-size="14.00">gini = 0.0</text>
<text text-anchor="middle" x="3056.74" y="-41.8" font-family="Helvetica,sans-Serif" font-size="14.00">samples = 26</text>
<text text-anchor="middle" x="3056.74" y="-25" font-family="Helvetica,sans-Serif" font-size="14.00">value = [26, 0]</text>
<text text-anchor="middle" x="3056.74" y="-8.2" font-family="Helvetica,sans-Serif" font-size="14.00" style="">class = fraud</text>
</g>
<!-- 63&#45;&gt;65 -->
<g id="edge65" class="edge" data-name="63-&gt;65">

<path fill="none" stroke="black" d="M3016.87,-110.73C3021.45,-102.46 3026.22,-93.82 3030.82,-85.51"/>
<polygon fill="black" stroke="black" points="3033.8,-87.35 3035.57,-76.9 3027.67,-83.96 3033.8,-87.35"/>
</g>
<!-- 67 -->
<g id="node68" class="node" pointer-events="visible" data-name="67">

<path fill="#399de5" stroke="black" d="M3104.36,-322.9C3104.36,-322.9 3009.13,-322.9 3009.13,-322.9 3003.13,-322.9 2997.13,-316.9 2997.13,-310.9 2997.13,-310.9 2997.13,-259.5 2997.13,-259.5 2997.13,-253.5 3003.13,-247.5 3009.13,-247.5 3009.13,-247.5 3104.36,-247.5 3104.36,-247.5 3110.36,-247.5 3116.36,-253.5 3116.36,-259.5 3116.36,-259.5 3116.36,-310.9 3116.36,-310.9 3116.36,-316.9 3110.36,-322.9 3104.36,-322.9"/>
<text text-anchor="middle" x="3056.74" y="-306.2" font-family="Helvetica,sans-Serif" font-size="14.00">gini = 0.0</text>
<text text-anchor="middle" x="3056.74" y="-289.4" font-family="Helvetica,sans-Serif" font-size="14.00">samples = 193</text>
<text text-anchor="middle" x="3056.74" y="-272.6" font-family="Helvetica,sans-Serif" font-size="14.00">value = [0, 193]</text>
<text text-anchor="middle" x="3056.74" y="-255.8" font-family="Helvetica,sans-Serif" font-size="14.00" style="">class = not fraud</text>
</g>
<!-- 66&#45;&gt;67 -->
<g id="edge67" class="edge" data-name="66-&gt;67">

<path fill="none" stroke="black" d="M3070.16,-366.71C3068.42,-356.25 3066.56,-345.1 3064.8,-334.53"/>
<polygon fill="black" stroke="black" points="3068.28,-334.13 3063.18,-324.84 3061.37,-335.28 3068.28,-334.13"/>
</g>
<!-- 68 -->
<g id="node69" class="node" pointer-events="visible" data-name="68">

<path fill="#e5833c" stroke="black" d="M3398.97,-331.2C3398.97,-331.2 3146.52,-331.2 3146.52,-331.2 3140.52,-331.2 3134.52,-325.2 3134.52,-319.2 3134.52,-319.2 3134.52,-251.2 3134.52,-251.2 3134.52,-245.2 3140.52,-239.2 3146.52,-239.2 3146.52,-239.2 3398.97,-239.2 3398.97,-239.2 3404.97,-239.2 3410.97,-245.2 3410.97,-251.2 3410.97,-251.2 3410.97,-319.2 3410.97,-319.2 3410.97,-325.2 3404.97,-331.2 3398.97,-331.2"/>
<text text-anchor="middle" x="3272.74" y="-314.6" font-family="Helvetica,sans-Serif" font-size="14.00">distance_from_last_transaction &lt;= 46.094</text>
<text text-anchor="middle" x="3272.74" y="-297.8" font-family="Helvetica,sans-Serif" font-size="14.00">gini = 0.032</text>
<text text-anchor="middle" x="3272.74" y="-281" font-family="Helvetica,sans-Serif" font-size="14.00">samples = 122</text>
<text text-anchor="middle" x="3272.74" y="-264.2" font-family="Helvetica,sans-Serif" font-size="14.00">value = [120, 2]</text>
<text text-anchor="middle" x="3272.74" y="-247.4" font-family="Helvetica,sans-Serif" font-size="14.00" style="">class = fraud</text>
</g>
<!-- 66&#45;&gt;68 -->
<g id="edge68" class="edge" data-name="66-&gt;68">

<path fill="none" stroke="black" d="M3141.86,-370.77C3158.25,-360.18 3176.08,-348.66 3193.14,-337.64"/>
<polygon fill="black" stroke="black" points="3194.76,-340.76 3201.26,-332.39 3190.96,-334.88 3194.76,-340.76"/>
</g>
<!-- 69 -->
<g id="node70" class="node" pointer-events="visible" data-name="69">

<path fill="#e58139" stroke="black" d="M3220.87,-194.9C3220.87,-194.9 3132.62,-194.9 3132.62,-194.9 3126.62,-194.9 3120.62,-188.9 3120.62,-182.9 3120.62,-182.9 3120.62,-131.5 3120.62,-131.5 3120.62,-125.5 3126.62,-119.5 3132.62,-119.5 3132.62,-119.5 3220.87,-119.5 3220.87,-119.5 3226.87,-119.5 3232.87,-125.5 3232.87,-131.5 3232.87,-131.5 3232.87,-182.9 3232.87,-182.9 3232.87,-188.9 3226.87,-194.9 3220.87,-194.9"/>
<text text-anchor="middle" x="3176.74" y="-178.2" font-family="Helvetica,sans-Serif" font-size="14.00">gini = 0.0</text>
<text text-anchor="middle" x="3176.74" y="-161.4" font-family="Helvetica,sans-Serif" font-size="14.00">samples = 120</text>
<text text-anchor="middle" x="3176.74" y="-144.6" font-family="Helvetica,sans-Serif" font-size="14.00">value = [120, 0]</text>
<text text-anchor="middle" x="3176.74" y="-127.8" font-family="Helvetica,sans-Serif" font-size="14.00" style="">class = fraud</text>
</g>
<!-- 68&#45;&gt;69 -->
<g id="edge69" class="edge" data-name="68-&gt;69">

<path fill="none" stroke="black" d="M3238.08,-238.71C3229.52,-227.48 3220.35,-215.43 3211.77,-204.17"/>
<polygon fill="black" stroke="black" points="3214.8,-202.38 3205.96,-196.55 3209.24,-206.62 3214.8,-202.38"/>
</g>
<!-- 70 -->
<g id="node71" class="node" pointer-events="visible" data-name="70">

<path fill="#399de5" stroke="black" d="M3358.36,-194.9C3358.36,-194.9 3263.13,-194.9 3263.13,-194.9 3257.13,-194.9 3251.13,-188.9 3251.13,-182.9 3251.13,-182.9 3251.13,-131.5 3251.13,-131.5 3251.13,-125.5 3257.13,-119.5 3263.13,-119.5 3263.13,-119.5 3358.36,-119.5 3358.36,-119.5 3364.36,-119.5 3370.36,-125.5 3370.36,-131.5 3370.36,-131.5 3370.36,-182.9 3370.36,-182.9 3370.36,-188.9 3364.36,-194.9 3358.36,-194.9"/>
<text text-anchor="middle" x="3310.74" y="-178.2" font-family="Helvetica,sans-Serif" font-size="14.00">gini = 0.0</text>
<text text-anchor="middle" x="3310.74" y="-161.4" font-family="Helvetica,sans-Serif" font-size="14.00">samples = 2</text>
<text text-anchor="middle" x="3310.74" y="-144.6" font-family="Helvetica,sans-Serif" font-size="14.00">value = [0, 2]</text>
<text text-anchor="middle" x="3310.74" y="-127.8" font-family="Helvetica,sans-Serif" font-size="14.00" style="">class = not fraud</text>
</g>
<!-- 68&#45;&gt;70 -->
<g id="edge70" class="edge" data-name="68-&gt;70">

<path fill="none" stroke="black" d="M3286.46,-238.71C3289.65,-228.14 3293.05,-216.86 3296.27,-206.19"/>
<polygon fill="black" stroke="black" points="3299.57,-207.38 3299.1,-196.79 3292.87,-205.36 3299.57,-207.38"/>
</g>
</g>
</svg>